<?xml version="1.0" encoding="iso-8859-1"?>
<!-- Generator: Adobe Illustrator 19.0.0, SVG Export Plug-In . SVG Version: 6.00 Build 0)  -->
<svg version="1.1" id="Capa_1" xmlns="http://www.w3.org/2000/svg" xmlns:xlink="http://www.w3.org/1999/xlink" x="0px" y="0px"
	 viewBox="0 0 512.037 512.037" style="enable-background:new 0 0 512.037 512.037;" xml:space="preserve">
<g transform="translate(0 -1)">
	<g transform="translate(1 9)">
		<path style="fill:#607D8B;" d="M428.724,430.821c0,0-54.528,65.877-132.096,64.597l-93.696-35.499
			c-9.256-7.032-18.01-14.702-26.197-22.955L66.057,326.288c-8.252-8.187-15.923-16.941-22.955-26.197L7.604,206.395
			C6.324,128.827,72.202,74.299,72.202,74.299l34.048,33.963l245.845,245.845l55.296,55.381L428.724,430.821z"/>
		<path style="fill:#CFD8DC;" d="M407.391,409.488c0,0-54.528,65.877-132.096,64.597l-93.696-35.499
			c-9.256-7.032-18.01-14.702-26.197-22.955l-89.345-89.344c-8.252-8.187-15.923-16.941-22.955-26.197L7.604,206.395
			C6.324,128.827,72.202,74.299,72.202,74.299l34.048,33.963l245.845,245.845L407.391,409.488z"/>
		<path style="fill:#607D8B;" d="M414.302,91.365l-45.909,70.997c6.155,7.001,11.937,14.322,17.323,21.931l-79.957,123.563
			l-30.72,30.72l-55.296,55.296l-43.007,43.093c-6.806,6.741-17.771,6.741-24.577,0l-86.101-86.101
			c-0.559-0.532-1.046-1.135-1.451-1.792c-5.257-6.897-4.638-16.61,1.451-22.784l43.093-43.008l86.017-86.016l123.563-79.957
			l73.558-47.616c6.812-4.473,15.829-3.546,21.589,2.219c0.085,0,0.085,0,0.171,0.085C418.051,77.803,418.151,85.454,414.302,91.365
			z"/>
		<path style="fill:#CFD8DC;" d="M414.302,91.365l-45.909,70.997l-81.664,126.123l-30.72,30.72l-55.296,55.296l-43.008,43.093
			c-6.805,6.741-17.771,6.741-24.576,0l-68.523-68.523c-5.257-6.897-4.638-16.61,1.451-22.784l43.093-43.008l86.017-86.016
			l123.563-79.957l73.558-47.616c6.812-4.473,15.829-3.546,21.589,2.219c0.085,0,0.085,0,0.171,0.085
			C418.051,77.803,418.151,85.454,414.302,91.365z"/>
		<path style="fill:#F44335;" d="M164.447,227.984v49.152l-49.152,49.152l-36.863,36.949l-12.374-12.373
			c-6.741-6.805-6.741-17.771,0-24.576l43.093-43.008L164.447,227.984z"/>
		<path style="fill:#C52828;" d="M275.039,338.576l-55.296,55.296l-43.007,43.093c-6.806,6.741-17.771,6.741-24.577,0
			l-12.288-12.288l36.865-36.949l49.152-49.152H275.039z"/>
		<path style="fill:#37474F;" d="M176.735,387.728l-36.865,36.949l-43.093,43.008l-61.44-61.44l43.094-43.008l36.863-36.949
			c10.19-10.155,26.674-10.155,36.864,0l24.577,24.576C186.89,361.054,186.89,377.538,176.735,387.728z"/>
		<g>
			<path style="fill:#607D8B;" d="M159.669,370.661l-36.865,36.949l-43.093,43.008l-44.373-44.373l43.094-43.008l36.863-36.949
				c10.19-10.155,26.674-10.155,36.864,0l7.51,7.509C169.823,343.988,169.823,360.471,159.669,370.661L159.669,370.661z"/>
			<path style="fill:#607D8B;" d="M287.344,436.933L287.344,436.933c3.26,3.26,7.682,5.092,12.292,5.092s9.032-1.831,12.292-5.092
				l92.189-92.189l-24.584-24.584l-92.189,92.189c-3.26,3.26-5.091,7.682-5.091,12.292S284.084,433.673,287.344,436.933z"/>
			<path style="fill:#607D8B;" d="M66.09,215.679L66.09,215.679c3.26,3.26,7.682,5.091,12.292,5.091
				c4.61,0,9.032-1.831,12.292-5.091l92.189-92.189l-24.584-24.584L66.09,191.095c-3.26,3.26-5.092,7.682-5.092,12.292
				S62.829,212.419,66.09,215.679z"/>
		</g>
		<g>
			<path style="fill:#F44335;" d="M296.628,495.419c-34.28-1.235-67.204-13.708-93.696-35.499l16.811-16.811
				c3.249-3.277,7.673-5.12,12.288-5.12c4.615,0,9.039,1.843,12.288,5.12L296.628,495.419z"/>
			<path style="fill:#F44335;" d="M59.913,283.28l-16.811,16.811c-21.79-26.493-34.263-59.416-35.498-93.696l52.309,52.309
				c3.277,3.25,5.12,7.673,5.12,12.288S63.19,280.03,59.913,283.28L59.913,283.28z"/>
		</g>
		<path style="fill:#00BCD4;" d="M219.724,283.27l0.029,0.029c6.201,6.201,14.776,9.424,23.526,8.843
			c8.75-0.581,16.824-4.909,22.15-11.875l48.251-63.098c6.033-7.89,5.294-19.027-1.729-26.051l-0.047-0.047
			c-7.023-7.023-18.161-7.762-26.051-1.729l-63.098,48.251c-6.966,5.327-11.294,13.4-11.875,22.15
			C210.3,268.494,213.523,277.069,219.724,283.27L219.724,283.27z"/>
		<path style="fill:#C52828;" d="M433.332,110.736l-47.616,73.557c-5.386-7.609-11.168-14.929-17.323-21.931l45.908-70.997
			c3.849-5.912,3.749-13.563-0.255-19.371l8.533,8.448l8.448,8.533C436.862,94.764,437.825,103.855,433.332,110.736L433.332,110.736
			z"/>
		<path style="fill:#F44335;" d="M414.302,91.365l-45.909,70.997c-4.181-4.779-8.704-9.557-13.483-14.251
			c-11.145-11.297-23.251-21.604-36.181-30.805l73.559-47.616c6.812-4.473,15.829-3.546,21.589,2.219c0.085,0,0.085,0,0.171,0.085
			C418.051,77.803,418.151,85.454,414.302,91.365z"/>
		<polygon style="fill:#FEC108;" points="121.439,443.109 96.777,467.685 35.337,406.245 59.999,381.669 		"/>
	</g>
	<g>
		<path d="M497.419,224.791l-15.938,15.938h-33.346c-4.713,0-8.533,3.821-8.533,8.533c0,4.713,3.821,8.533,8.533,8.533h16.28
			l-71.586,71.59l-6.26-6.261c-1.6-1.601-3.77-2.5-6.033-2.5s-4.434,0.899-6.033,2.5l-24.7,24.699l-32.103-32.11L441.552,124.32
			c6.67-10.261,5.215-23.796-3.483-32.404L421.11,74.949c-8.617-8.702-22.164-10.149-32.425-3.462L197.309,195.332L165.2,163.22
			l24.694-24.695c1.601-1.6,2.5-3.77,2.5-6.033c0-2.263-0.899-4.434-2.5-6.033l-6.258-6.259l71.592-71.594v16.278
			c0,4.713,3.82,8.533,8.533,8.533c4.713,0,8.533-3.82,8.533-8.533V31.538l15.933-15.934c2.178-2.151,3.037-5.304,2.251-8.262
			s-3.097-5.269-6.055-6.055c-2.958-0.786-6.111,0.073-8.262,2.251l-15.938,15.937h-33.338c-4.713,0-8.533,3.821-8.533,8.533
			s3.821,8.533,8.533,8.533h16.272l-71.586,71.59l-6.26-6.261c-1.6-1.601-3.77-2.5-6.033-2.5c-2.263,0-4.433,0.899-6.033,2.5
			l-24.695,24.696l-49.28-49.28c-3.108-3.115-8.077-3.351-11.467-0.546c-2.617,2.158-64.017,53.725-67.625,129.592
			c-0.137,2.915-0.187,5.824-0.15,8.728c-0.004,0.179,0.013,0.348,0.019,0.527c1.394,36.381,14.678,71.302,37.817,99.411
			c0.064,0.067,0.082,0.156,0.148,0.222l0.039,0.026c5.672,7.323,11.724,14.342,18.133,21.029
			c-4.939,9.901-2.972,21.853,4.878,29.649l6.256,6.256l-36.99,36.99c-1.601,1.6-2.5,3.77-2.5,6.033s0.899,4.433,2.5,6.033
			l61.458,61.458c1.6,1.601,3.77,2.5,6.033,2.5c2.263,0,4.433-0.899,6.033-2.5l36.991-36.989l6.259,6.259
			c7.829,7.881,19.841,9.825,29.756,4.816c6.583,6.301,13.489,12.256,20.688,17.843c0.106,0.119,0.142,0.272,0.256,0.386
			c0.426,0.35,0.887,0.656,1.375,0.913c27.692,22.453,61.878,35.392,97.497,36.904c0.352,0.092,0.709,0.162,1.07,0.208
			c0.198,0,0.383-0.099,0.581-0.113c0.485,0.005,0.966,0.084,1.452,0.084c2.3,0,4.608-0.054,6.908-0.162
			c75.875-3.604,127.442-65.013,129.592-67.625c2.805-3.39,2.57-8.357-0.542-11.467l-49.281-49.278l24.698-24.697
			c1.601-1.6,2.5-3.77,2.5-6.033c0-2.263-0.899-4.434-2.5-6.033l-6.258-6.259l71.583-71.586v16.27c0,4.713,3.821,8.533,8.533,8.533
			c4.713,0,8.533-3.821,8.533-8.533V252.8l15.941-15.942c2.178-2.151,3.037-5.304,2.251-8.262c-0.786-2.958-3.097-5.269-6.055-6.055
			S499.57,222.613,497.419,224.791z M272.514,339.066h-45.629c-2.263,0-4.434,0.899-6.033,2.5l-28.167,28.166
			c-1.493-6-4.58-11.485-8.933-15.875l-24.583-24.588c-4.398-4.351-9.893-7.429-15.9-8.907l28.192-28.192
			c1.6-1.6,2.5-3.77,2.5-6.033v-45.636l27.583-27.584l117.854-76.265c21.604,16.184,40.788,35.369,56.971,56.973L300.11,311.471
			L272.514,339.066z M122.402,440.013L73.01,390.621l12.396-12.396l0.013-0.009l0.009-0.012l36.866-36.866
			c6.859-6.829,17.949-6.829,24.808,0l24.583,24.587c3.292,3.289,5.142,7.751,5.142,12.404c0,4.653-1.85,9.116-5.142,12.404
			L122.402,440.013z M397.935,85.829c3.517-2.289,8.157-1.791,11.108,1.192l16.958,16.967c2.978,2.942,3.479,7.572,1.2,11.083
			l-40.953,63.286c-15.1-19.17-32.416-36.485-51.586-51.584L397.935,85.829z M159.277,119.971l6.254,6.256l0.004,0.006l0.006,0.004
			l6.252,6.254l-86.15,86.15c-3.5,3.347-9.014,3.349-12.517,0.004v-0.004c-1.659-1.659-2.592-3.91-2.592-6.256
			c0-2.347,0.932-4.597,2.592-6.256l61.441-61.446l0.018-0.012l0.012-0.017L159.277,119.971z M72.977,95.133l43.504,43.501
			L61.06,194.058c-4.861,4.861-7.592,11.453-7.592,18.327c0,6.874,2.731,13.467,7.592,18.327v0.004
			c10.122,10.118,26.53,10.116,36.65-0.004l55.423-55.426l30.952,30.955L67.2,323.126c-4.16-4.423-8.042-8.872-11.688-13.343
			l11.465-11.467c10.1-10.129,10.1-26.521,0-36.65l-49.829-49.829c0.017-1.519,0-3.037,0.071-4.559
			C19.794,151.912,58.235,109.458,72.977,95.133z M19.632,238.455l35.278,35.278c3.45,3.459,3.45,9.058,0,12.517l-9.758,9.761
			C32.82,278.76,24.136,259.176,19.632,238.455L19.632,238.455z M73.127,353.854c-3.433-3.466-3.433-9.051,0-12.517l83.767-83.769
			v25.036l-46.666,46.667l-30.843,30.843L73.127,353.854z M97.819,464.596l-49.392-49.392l12.517-12.517l49.392,49.392
			L97.819,464.596z M159.169,439.9l-6.259-6.259l30.843-30.841l46.667-46.667h25.029l-83.763,83.763
			C168.175,443.218,162.681,443.219,159.169,439.9L159.169,439.9z M217.017,467.867l9.752-9.75c3.51-3.322,9.004-3.324,12.517-0.004
			l35.256,35.255C253.835,488.859,234.263,480.182,217.017,467.867L217.017,467.867z M417.902,440.054
			c-14.275,14.733-56.558,53.108-112.025,55.742c-1.569,0.073-3.133,0.06-4.7,0.074l-49.825-49.825
			c-10.266-9.763-26.384-9.763-36.65,0l-11.462,11.463c-4.472-3.645-8.922-7.525-13.345-11.685l92.185-92.185l0.014-0.013
			l24.693-24.692l30.95,30.956l-55.425,55.422c-10.122,10.121-10.123,26.53-0.002,36.652c10.121,10.122,26.53,10.123,36.652,0.002
			l55.427-55.424L417.902,440.054z M368.357,378.438l-0.005,0.004l-0.004,0.005l-61.454,61.449c-3.459,3.45-9.058,3.45-12.517,0
			c-1.659-1.659-2.592-3.91-2.592-6.256c0-2.347,0.932-4.597,2.592-6.256l86.158-86.159l6.254,6.256l0.004,0.006l0.006,0.004
			l6.252,6.254L368.357,378.438z"/>
		<path d="M318.936,194.033c-10.068-10.002-25.967-11.056-37.267-2.471l-63.1,48.254c-8.917,6.824-14.457,17.163-15.2,28.367
			c-0.742,11.204,3.385,22.184,11.325,30.124l6.033-6.038l-6.008,6.063c7.304,7.305,17.212,11.408,27.542,11.408
			c0.858,0,1.717-0.029,2.583-0.083c11.203-0.743,21.541-6.287,28.358-15.208l48.25-63.095
			C330.058,220.033,328.984,204.096,318.936,194.033L318.936,194.033z M307.902,220.987l-48.25,63.095
			c-3.834,5.012-9.645,8.127-15.942,8.546c-6.079,0.459-12.069-1.678-16.483-5.883l-0.025-0.029
			c-0.142-0.167-0.292-0.325-0.442-0.483c-4.462-4.459-6.783-10.628-6.366-16.923c0.417-6.295,3.53-12.104,8.541-15.936l63.1-48.254
			c1.96-1.497,4.359-2.307,6.825-2.304c4.306-0.01,8.245,2.423,10.163,6.278C310.942,212.949,310.507,217.559,307.902,220.987z"/>
	</g>
</g>
<g>
</g>
<g>
</g>
<g>
</g>
<g>
</g>
<g>
</g>
<g>
</g>
<g>
</g>
<g>
</g>
<g>
</g>
<g>
</g>
<g>
</g>
<g>
</g>
<g>
</g>
<g>
</g>
<g>
</g>
</svg>
