<?xml version="1.0" encoding="utf-8"?>
<!-- Generator: Adobe Illustrator 23.0.2, SVG Export Plug-In . SVG Version: 6.00 Build 0)  -->
<svg version="1.1" id="Capa_1" xmlns="http://www.w3.org/2000/svg" xmlns:xlink="http://www.w3.org/1999/xlink" x="0px" y="0px"
	 viewBox="0 0 510.23 510.23" style="enable-background:new 0 0 510.23 510.23;" xml:space="preserve">
<style type="text/css">
	.st0{fill:#243770;stroke:#000000;stroke-width:22;stroke-miterlimit:10;}
	.st1{stroke:#000000;stroke-width:22;stroke-miterlimit:10;}
	.st2{fill:#FFFFFF;}
</style>
<circle class="st0" cx="175.2" cy="192.78" r="154.7"/>
<path class="st1" d="M482.98,176.69H376.31c-5.89-0.01-10.67,4.76-10.69,10.65c-0.01,2.84,1.12,5.57,3.13,7.57l45.8,45.78
	L269.65,385.61l-77.78-77.8c-4.16-4.16-10.92-4.16-15.08,0l-128,128c-4.24,4.09-4.35,10.85-0.26,15.08
	c4.09,4.24,10.85,4.35,15.08,0.26c0.09-0.09,0.18-0.17,0.26-0.26l120.45-120.45l77.78,77.78c4.17,4.16,10.92,4.16,15.08,0
	l152.47-152.45l45.78,45.78c4.16,4.17,10.91,4.18,15.08,0.02c2.01-2,3.13-4.72,3.13-7.55V187.36
	C493.65,181.46,488.87,176.69,482.98,176.69z"/>
<g>
	<path class="st2" d="M195.67,115.34c6.97,1.11,13.05,3.23,18.25,6.34c5.19,2.97,9.35,7.16,12.46,12.57
		c3.12,5.42,4.67,12.35,4.67,20.81c0,9.05-1.6,16.77-4.78,23.14c-3.19,6.38-9.31,10.83-18.36,13.35
		c10.09,1.34,17.1,5.08,21.03,11.24c3.93,6.16,5.9,14.13,5.9,23.92c0,9.05-1.56,16.47-4.67,22.25c-3.12,5.79-7.34,10.39-12.68,13.8
		c-5.34,3.41-11.61,5.79-18.8,7.12c-7.2,1.34-14.87,2-23.03,2h-27.59c-11.42,0-19.69-2.23-24.81-6.68
		c-5.12-4.45-7.68-12.46-7.68-24.03v-96.8c0-11.42,2.56-19.39,7.68-23.92c5.12-4.52,13.39-6.79,24.81-6.79h25.59
		C181.35,113.67,188.7,114.23,195.67,115.34z M158.73,139.04c-4.3,0-7.09,0.86-8.34,2.56c-1.26,1.71-1.89,4.27-1.89,7.68v30.26
		h24.48c8.46,0,14.65-1.56,18.58-4.67c3.93-3.11,5.9-8.23,5.9-15.35c0-7.12-1.97-12.31-5.9-15.58c-3.93-3.26-10.12-4.9-18.58-4.9
		H158.73z M194.34,241.63c4.3-3.26,6.45-8.9,6.45-16.91c0-7.42-2.04-12.57-6.12-15.47c-4.08-2.89-10.5-4.34-19.25-4.34H148.5v32.27
		c0,3.56,0.92,6.01,2.78,7.34c1.85,1.33,4.34,2,7.45,2h15.13C183.21,246.52,190.03,244.89,194.34,241.63z"/>
</g>
</svg>
