<?xml version="1.0" encoding="iso-8859-1"?>
<!-- Generator: Adobe Illustrator 19.0.0, SVG Export Plug-In . SVG Version: 6.00 Build 0)  -->
<svg version="1.1" id="Capa_1" xmlns="http://www.w3.org/2000/svg" xmlns:xlink="http://www.w3.org/1999/xlink" x="0px" y="0px"
	 viewBox="0 0 512.001 512.001" style="enable-background:new 0 0 512.001 512.001;" xml:space="preserve">
<g>
	<g transform="translate(1)">
		<path style="fill:#FFEB3A;" d="M54.757,480.376L30.5,456.12c-6.433-6.433-10.048-15.159-10.048-24.257
			c0-9.098,3.614-17.824,10.048-24.257l0,0l8.323-8.086l72.889,72.889l-8.441,7.967l0,0c-6.433,6.433-15.159,10.048-24.257,10.048
			C69.916,490.424,61.19,486.81,54.757,480.376L54.757,480.376z"/>
		<polygon style="fill:#CFD8DC;" points="493.934,65.497 429.678,129.753 381.124,81.198 445.38,16.942 475.929,47.492 		"/>
		
			<rect x="384.211" y="42.291" transform="matrix(-0.7071 0.7071 -0.7071 -0.7071 777.4964 -194.2641)" style="fill:#F5F5F5;" width="89.541" height="43.204"/>
		<path style="fill:#37474F;" d="M497.433,61.913l-12.117,12.203l-48.555-48.555l0.597-0.512l11.605-11.605
			c3.202-3.235,7.565-5.056,12.117-5.056c4.552,0,8.915,1.82,12.117,5.056l9.984,9.984l14.251,14.251
			c3.236,3.202,5.056,7.565,5.056,12.117S500.669,58.711,497.433,61.913L497.433,61.913z"/>
		<g>
			<path style="fill:#607D8B;" d="M480.281,43.652l-12.117,12.203l-30.805-30.805l11.605-11.605
				c3.202-3.235,7.565-5.056,12.117-5.056c4.552,0,8.915,1.82,12.117,5.056l9.984,9.984
				C486.871,30.055,485.684,38.329,480.281,43.652L480.281,43.652z"/>
			<path style="fill:#607D8B;" d="M448.93,122.589l-60.642-60.642c-3.217-3.217-7.579-5.024-12.128-5.024
				c-4.549,0-8.912,1.807-12.128,5.024l-37.171,37.171l84.899,84.899l37.171-37.171c3.217-3.217,5.024-7.579,5.024-12.128
				S452.147,125.805,448.93,122.589z"/>
		</g>
		<path style="fill:#CFD8DC;" d="M432.129,103.534l-45.883-45.883c-6.741-4.9-16.15-3.596-21.305,2.952L327.77,97.773l64.236,64.236
			l37.171-37.171C435.725,119.683,437.029,110.275,432.129,103.534z"/>
		<path style="fill:#37474F;" d="M248.772,456.153l-0.085-0.085h0.085L424.644,171.14l-84.907-84.907L56.004,261.337l-1.195,0.768
			l0.085,0.171l-0.171-0.171l-6.059-6.144c-3.354-3.328-8.764-3.328-12.117,0L24.43,268.164c-3.328,3.354-3.328,8.764,0,12.117
			L7.79,374.574c-0.508,3.101-0.184,6.281,0.939,9.216c0.87,2.202,2.176,4.204,3.84,5.888l108.629,108.629
			c3.957,3.956,9.592,5.739,15.104,4.779l42.837-7.595l20.48-3.584l30.976-5.461c3.354,3.328,8.764,3.328,12.117,0l12.203-12.117
			c3.328-3.354,3.328-8.764,0-12.117L248.772,456.153z M72.9,280.196l0.085,0.171l-0.171-0.171H72.9z M242.713,450.094l-0.085-0.085
			h0.085V450.094z"/>
		<path style="fill:#607D8B;" d="M232.729,438.062l-6.059-6.059l-0.085-0.085h0.085v0.085l6.059,5.973l175.104-283.648
			l-68.096-68.096L56.004,261.337l-1.195,0.768l0.085,0.171l-0.171-0.171l-6.059-6.144c-3.354-3.328-8.764-3.328-12.117,0
			L24.43,268.164c-3.328,3.354-3.328,8.764,0,12.117L7.79,374.574c-0.508,3.101-0.184,6.281,0.939,9.216l96.427,96.427
			c3.957,3.956,9.592,5.739,15.104,4.779l42.837-7.595l20.48-3.584l30.976-5.461c3.353,3.328,8.764,3.328,12.117,0l12.203-12.117
			c3.328-3.354,3.328-8.764,0-12.117L232.729,438.062z M56.772,262.105h0.085l0.085,0.171L56.772,262.105z"/>
		<g>
			<polygon style="fill:#95A5A5;" points="54.809,262.105 72.814,280.196 54.724,262.105 			"/>
			<polygon style="fill:#95A5A5;" points="72.9,280.196 72.985,280.366 72.814,280.196 			"/>
			<polygon style="fill:#95A5A5;" points="72.985,280.366 85.102,292.398 85.102,292.484 			"/>
			<polygon style="fill:#95A5A5;" points="85.188,292.569 97.134,304.43 97.134,304.516 			"/>
			<polygon style="fill:#95A5A5;" points="109.337,316.633 121.369,328.75 109.252,316.633 			"/>
			<polygon style="fill:#95A5A5;" points="121.369,328.75 121.454,328.75 121.454,328.836 			"/>
			<polygon style="fill:#95A5A5;" points="133.572,340.953 133.657,340.953 133.657,341.038 			"/>
			<polygon style="fill:#95A5A5;" points="145.604,352.985 145.689,352.985 145.689,353.07 			"/>
			<polygon style="fill:#95A5A5;" points="157.806,365.188 157.892,365.188 157.892,365.273 			"/>
			<polygon style="fill:#95A5A5;" points="169.838,377.22 169.924,377.22 169.924,377.305 			"/>
			<polygon style="fill:#95A5A5;" points="182.041,389.422 182.126,389.422 182.126,389.508 			"/>
			<polygon style="fill:#95A5A5;" points="194.244,401.54 206.361,413.742 194.158,401.54 			"/>
			<polygon style="fill:#95A5A5;" points="206.446,413.742 218.393,425.774 206.361,413.742 			"/>
			<polygon style="fill:#95A5A5;" points="218.393,425.774 218.478,425.774 218.478,425.86 			"/>
			<polygon style="fill:#95A5A5;" points="248.772,456.068 248.772,456.153 242.628,450.009 242.713,450.009 			"/>
		</g>
		<g>
			<polygon style="fill:#BDC3C7;" points="54.809,262.105 72.814,280.196 54.724,262.105 			"/>
			<polygon style="fill:#BDC3C7;" points="72.9,280.196 72.985,280.366 72.814,280.196 			"/>
			<polygon style="fill:#BDC3C7;" points="72.985,280.366 85.102,292.398 85.102,292.484 			"/>
			<polygon style="fill:#BDC3C7;" points="85.188,292.569 97.134,304.43 97.134,304.516 			"/>
			<polygon style="fill:#BDC3C7;" points="109.337,316.633 121.369,328.75 109.252,316.633 			"/>
			<polygon style="fill:#BDC3C7;" points="121.369,328.75 121.454,328.75 121.454,328.836 			"/>
			<polygon style="fill:#BDC3C7;" points="133.572,340.953 133.657,340.953 133.657,341.038 			"/>
			<polygon style="fill:#BDC3C7;" points="145.604,352.985 145.689,352.985 145.689,353.07 			"/>
			<polygon style="fill:#BDC3C7;" points="157.806,365.188 157.892,365.188 157.892,365.273 			"/>
			<polygon style="fill:#BDC3C7;" points="169.838,377.22 169.924,377.22 169.924,377.305 			"/>
			<polygon style="fill:#BDC3C7;" points="182.041,389.422 182.126,389.422 182.126,389.508 			"/>
			<polygon style="fill:#BDC3C7;" points="194.244,401.54 206.361,413.742 194.158,401.54 			"/>
			<polygon style="fill:#BDC3C7;" points="206.446,413.742 218.393,425.774 206.361,413.742 			"/>
			<polygon style="fill:#BDC3C7;" points="218.393,425.774 218.478,425.774 218.478,425.86 			"/>
			<polygon style="fill:#BDC3C7;" points="248.772,456.068 248.772,456.153 242.628,450.009 242.713,450.009 			"/>
		</g>
		<path style="fill:#FDD834;" d="M254.916,474.329l-12.203,12.117c-3.353,3.328-8.764,3.328-12.117,0l-12.203-12.203l-5.035-5.035
			l-19.2-19.2l-12.032-12.032l-12.203-12.203l-12.032-12.032l-12.203-12.203l-12.032-12.032l-12.288-12.288l-12.032-12.032
			l-12.203-12.203l-12.032-12.032L72.9,328.75L24.43,280.281c-3.328-3.354-3.328-8.764,0-12.117l12.117-12.203
			c1.688-1.691,4.013-2.59,6.4-2.475c2.146,0.092,4.182,0.974,5.717,2.475L72.9,280.196l12.203,12.203v0.085l12.032,11.947v0.085
			l12.203,12.117l12.117,12.117l12.203,12.203l12.032,12.032l12.203,12.203l12.032,12.032l12.203,12.203l12.117,12.117
			l12.117,12.203h0.085l12.032,12.032v0.085l12.203,12.117l12.032,12.032l12.203,12.203
			C258.244,465.565,258.244,470.976,254.916,474.329z"/>
		<path style="fill:#FFEB3A;" d="M231.961,454.617l-12.203,12.117c-1.689,1.691-4.013,2.59-6.4,2.475l-19.2-19.2l-12.032-12.032
			l-12.203-12.203l-12.032-12.032l-12.203-12.203l-12.032-12.032l-12.288-12.288l-12.032-12.032l-12.203-12.203l-12.032-12.032
			L72.9,328.75L24.43,280.281c-3.328-3.354-3.328-8.764,0-12.117l12.117-12.203c1.688-1.691,4.013-2.59,6.4-2.475l6.997,6.997
			l12.203,12.203v0.085l12.032,11.947v0.085l12.203,12.117L98.5,309.038l12.203,12.203l12.032,12.032l12.203,12.203l12.032,12.032
			l12.203,12.203l12.117,12.117l12.117,12.203h0.085l12.032,12.032v0.085l12.203,12.117l12.032,12.032l12.203,12.203
			C235.289,445.853,235.289,451.264,231.961,454.617L231.961,454.617z"/>
		<path style="fill:#F57C00;" d="M230.596,486.446l-30.976,5.461l-20.48,3.584l-42.837,7.595c-5.512,0.96-11.147-0.822-15.104-4.779
			L12.569,389.678c-3.956-3.957-5.739-9.592-4.779-15.104l16.469-93.269l0.171-1.024L230.596,486.446z"/>
		<path style="fill:#FF9801;" d="M213.529,470.574l-30.976,5.461l-20.48,3.584l-42.837,7.595c-3.701,0.688-7.527,0.086-10.837-1.707
			l-95.829-95.829c-3.956-3.957-5.739-9.592-4.779-15.104l16.469-93.269L213.529,470.574z"/>
		<path style="fill:#B0D3F0;" d="M273.092,286.34l-6.059,6.144l-12.117,12.032l-42.411,42.411v0.085l-6.144,6.059
			c-3.354,3.328-8.764,3.328-12.117,0l-36.437-36.437c-3.328-3.353-3.328-8.764,0-12.117l66.731-66.731
			c3.354-3.328,8.764-3.328,12.117,0l36.437,36.437C276.419,277.576,276.419,282.986,273.092,286.34z"/>
	</g>
	<g>
		<path d="M480.226,7.405c-10.163-9.705-26.16-9.707-36.325-0.004l-12.127,12.124l-0.007,0.005l-0.005,0.007l-36.412,36.406
			l-0.026-0.026c-10.163-9.705-26.16-9.707-36.325-0.004l-23.546,23.546L57.017,251.259l-1.291-1.291
			c-6.681-6.679-17.511-6.679-24.192,0l-12.133,12.129c-5.277,5.31-6.478,13.439-2.961,20.048L0.384,373.08
			c-1.441,8.252,1.223,16.689,7.142,22.617l12.512,12.513c-11.247,16.985-8.977,39.542,5.429,53.945l24.258,24.254
			c14.403,14.401,36.954,16.671,53.939,5.43l12.511,12.512c5.928,5.929,14.377,8.592,22.633,7.133l90.935-16.045
			c6.597,3.571,14.759,2.365,20.041-2.963l12.125-12.129c6.675-6.684,6.675-17.512,0-24.196l-1.296-1.296l171.79-278.415
			l23.572-23.564c10-10.04,10-26.276,0-36.317l-0.009-0.004l-0.031-0.031l36.405-36.408l0.01-0.006l0.006-0.01l12.119-12.119
			c4.818-4.816,7.525-11.35,7.525-18.163s-2.707-13.346-7.525-18.163L480.226,7.405z M339.515,97.011l11.853,11.852L81.28,275.514
			l-11.854-11.855L339.515,97.011z M140.669,383.398l-12.187-12.191l12.16-12.16l12.186,12.19L140.669,383.398z M164.894,383.305
			l12.187,12.191l-12.16,12.16l-12.186-12.19L164.894,383.305z M116.417,359.138l-12.189-12.193l12.161-12.159l12.188,12.192
			L116.417,359.138z M92.163,334.877l-12.188-12.192l12.16-12.16l12.189,12.193L92.163,334.877z M176.985,419.725l12.16-12.16
			l12.19,12.194l-12.16,12.16L176.985,419.725z M80.07,298.457l-12.16,12.16l-12.19-12.194l12.16-12.16L80.07,298.457z
			 M201.24,443.987l12.16-12.16l12.189,12.193l-12.161,12.159L201.24,443.987z M43.659,262.034l12.156,12.16l-12.16,12.16
			l-12.187-12.191L43.659,262.034z M91.184,479.359c-9.892,4.565-21.574,2.571-29.392-5.017l-24.258-24.254
			c-7.735-7.746-9.745-19.527-5.017-29.4l29.333,29.335L91.184,479.359z M193.273,484.544l-46.581-46.584
			c-3.332-3.332-8.735-3.332-12.067,0c-3.332,3.332-3.332,8.735,0,12.067l38.134,38.137l-36.917,6.513
			c-2.772,0.492-5.609-0.401-7.6-2.392l-54.325-54.327l-36.383-36.385l-0.002-0.002l-17.94-17.94c-1.985-1.991-2.88-4.822-2.4-7.592
			l13.8-78.154l183,183.004L193.273,484.544z M237.659,480.417l-0.009-0.013v0.004l-12.158-12.162l12.161-12.159l12.188,12.192
			L237.659,480.417z M248.218,442.459L93.684,287.918l270.089-166.652l13.42,13.42l37.675,37.677L248.218,442.459z M443.901,140.813
			l-18.225,18.221l-36.417-36.415l-36.417-36.414l18.233-18.229c3.407-3.253,8.77-3.251,12.175,0.004l60.642,60.638
			C447.257,131.985,447.261,137.441,443.901,140.813z M407.418,68.009l30.385-30.377l36.446,36.443l-30.38,30.383L407.418,68.009z
			 M492.409,55.913l-6.094,6.094l-36.444-36.441l6.105-6.103c3.407-3.253,8.77-3.251,12.175,0.004l24.258,24.254
			c1.617,1.617,2.525,3.809,2.525,6.096C494.934,52.104,494.026,54.297,492.409,55.913L492.409,55.913z"/>
		<path d="M274.006,298.45l6.095-6.095c6.678-6.683,6.678-17.513,0-24.196l-36.383-36.383c-6.771-6.467-17.429-6.467-24.2,0
			l-66.7,66.704c-6.678,6.683-6.678,17.513,0,24.196l36.383,36.387v0.004c6.688,6.663,17.506,6.661,24.192-0.004l6.097-6.097
			l6.095,6.097c2.156,2.156,5.297,2.997,8.242,2.208c2.944-0.789,5.244-3.089,6.033-6.033c0.789-2.944-0.053-6.086-2.208-8.242
			l-6.095-6.097l30.383-30.383l6.095,6.097c2.156,2.155,5.297,2.997,8.242,2.208s5.244-3.089,6.033-6.033s-0.053-6.086-2.208-8.242
			L274.006,298.45z M201.276,347.005l-0.009-0.013l-36.383-36.446l66.767-66.704l36.383,36.446L201.276,347.005z"/>
		<path d="M110.368,425.767c2.155,2.155,5.297,2.997,8.242,2.208c2.944-0.789,5.244-3.089,6.033-6.033s-0.053-6.086-2.208-8.242
			l-18.192-18.192c-3.332-3.332-8.735-3.332-12.067,0c-3.332,3.332-3.332,8.735,0,12.067L110.368,425.767z"/>
	</g>
</g>
<g>
</g>
<g>
</g>
<g>
</g>
<g>
</g>
<g>
</g>
<g>
</g>
<g>
</g>
<g>
</g>
<g>
</g>
<g>
</g>
<g>
</g>
<g>
</g>
<g>
</g>
<g>
</g>
<g>
</g>
</svg>
