<?xml version="1.0" encoding="iso-8859-1"?>
<!-- Generator: Adobe Illustrator 19.0.0, SVG Export Plug-In . SVG Version: 6.00 Build 0)  -->
<svg version="1.1" id="Capa_1" xmlns="http://www.w3.org/2000/svg" xmlns:xlink="http://www.w3.org/1999/xlink" x="0px" y="0px"
	 viewBox="0 0 512 512" style="enable-background:new 0 0 512 512;" xml:space="preserve">
<g>
	<g transform="translate(1 1)">
		<path style="fill:#CFD8DC;" d="M221.805,359.875l-48.299,24.149l-24.064,48.213l-6.059-5.973
			c-16.667,16.619-43.645,16.6-60.288-0.043c-16.643-16.643-16.662-43.621-0.043-60.288l-6.059-6.059l48.299-24.149l24.149-48.299
			l9.198-9.207l74.063,70.752L221.805,359.875z"/>
		<path style="fill:#607D8B;" d="M348.525,233.155l-126.72,126.72l-72.363-72.448l0.085-0.171l126.549-126.549
			c3.354-3.328,8.764-3.328,12.117,0l43.008,43.008l17.323,17.408c1.598,1.594,2.496,3.759,2.496,6.016
			S350.123,231.56,348.525,233.155z"/>
		<path style="fill:#CFD8DC;" d="M329.923,214.211l-126.72,126.72l-53.675-53.675l126.549-126.549c3.354-3.328,8.764-3.328,12.117,0
			l43.008,43.008C333.211,207.098,332.685,211.409,329.923,214.211L329.923,214.211z"/>
		<polygon style="fill:#607D8B;" points="125.268,335.725 173.541,383.998 221.814,359.866 149.409,287.452 		"/>
		<g>
			<polygon style="fill:#CFD8DC;" points="125.882,333.609 161.398,369.125 206.479,341.801 153.206,288.527 			"/>
			<polygon style="fill:#CFD8DC;" points="173.507,384.024 149.443,432.237 132.205,415 76.995,359.875 123.16,336.749 
				125.293,335.725 			"/>
		</g>
		<polygon style="fill:#F5F5F5;" points="155.245,368.835 132.205,415 76.995,359.875 123.16,336.749 		"/>
		
			<rect x="316.497" y="130.434" transform="matrix(0.7071 0.7071 -0.7071 0.7071 221.9308 -184.4066)" style="fill:#607D8B;" width="34.133" height="90.513"/>
		<circle style="fill:#CFD8DC;" cx="439.038" cy="70.228" r="17.067"/>
		<path style="fill:#607D8B;" d="M342.493,46.095c-33.325,33.325-33.325,87.355,0,120.68s87.355,33.325,120.68,0L342.493,46.095z"/>
		<path style="fill:#CFD8DC;" d="M344.297,46.237c-33.325,33.325-38.168,82.511-10.818,109.861
			c27.35,27.35,76.537,22.507,109.861-10.818L344.297,46.237z"/>
		<path style="fill:#00BCD4;" d="M258.019,251.252L258.019,251.252c-6.665-6.665-6.665-17.471,0-24.136l48.272-48.272l24.136,24.136
			l-48.272,48.272C275.49,257.917,264.684,257.917,258.019,251.252z"/>
		<polygon style="fill:#F57C00;" points="229.4,72.557 229.4,164.376 225.56,168.216 168.472,225.304 164.376,229.4 72.557,229.4 
			68.461,225.304 55.491,212.333 51.395,208.237 7.533,164.376 7.533,72.557 11.8,68.291 68.632,11.459 72.557,7.533 164.376,7.533 
					"/>
		<polygon style="fill:#FF9801;" points="212.333,55.491 212.333,147.309 208.493,151.149 151.405,208.237 147.309,212.333 
			55.491,212.333 51.395,208.237 7.533,164.376 7.533,72.557 11.8,68.291 68.632,11.459 72.557,7.533 164.376,7.533 		"/>
		<polygon style="fill:#F57C00;" points="502.467,345.624 502.467,437.443 498.627,441.283 441.539,498.371 437.443,502.467 
			345.624,502.467 341.528,498.371 328.557,485.4 324.461,481.304 280.6,437.443 280.6,345.624 284.867,341.357 341.699,284.525 
			345.624,280.6 437.443,280.6 		"/>
		<polygon style="fill:#FF9801;" points="485.4,328.557 485.4,420.376 481.56,424.216 424.472,481.304 420.376,485.4 328.557,485.4 
			324.461,481.304 280.6,437.443 280.6,345.624 284.867,341.357 341.699,284.525 345.624,280.6 437.443,280.6 		"/>
		<g>
			<polygon style="fill:#FEC108;" points="373.869,434.2 348.867,409.206 348.867,373.861 373.869,348.867 409.197,348.867 
				434.2,373.861 434.2,409.206 409.197,434.2 			"/>
			<polygon style="fill:#FEC108;" points="100.803,161.133 75.8,136.139 75.8,100.794 100.803,75.8 136.131,75.8 161.133,100.794 
				161.133,136.139 136.131,161.133 			"/>
		</g>
	</g>
	<path d="M444.517,275.567c-1.6-1.601-3.77-2.5-6.033-2.5h-37.417v-71.94c0.923,0.027,1.843,0.132,2.767,0.132
		c24.896,0.044,48.783-9.834,66.375-27.45c1.601-1.6,2.5-3.77,2.5-6.033c0-2.263-0.899-4.433-2.5-6.033l-54.308-54.306
		l13.179-13.181c11.74,5.572,25.792,1.447,32.658-9.587c6.866-11.034,4.359-25.463-5.826-33.534
		c-10.185-8.071-24.805-7.215-33.978,1.991v0.004c-7.624,7.67-9.595,19.308-4.922,29.061l-13.177,13.179l-54.309-54.306
		c-1.6-1.601-3.77-2.5-6.033-2.5c-2.263,0-4.433,0.899-6.033,2.5c-18.445,18.463-28.337,43.794-27.284,69.871h-71.242V73.517
		c-0.001-2.263-0.9-4.433-2.5-6.033L171.45,2.5c-1.6-1.601-3.77-2.5-6.033-2.5h-91.9c-2.263,0-4.434,0.899-6.033,2.5L2.5,67.483
		c-1.6,1.6-2.5,3.77-2.5,6.033v91.9c0.001,2.263,0.9,4.433,2.5,6.033l64.983,64.983c1.6,1.601,3.77,2.5,6.033,2.5h91.9
		c2.263,0,4.434-0.899,6.033-2.5l26.46-26.46l9.454,9.456l-62.988,62.991c-0.387,0.462-0.721,0.965-0.997,1.5
		c-0.172,0.266-0.46,0.429-0.603,0.716l-22.869,45.727l-45.723,22.865c-2.454,1.226-4.169,3.558-4.608,6.266
		c-0.439,2.708,0.451,5.462,2.391,7.401l0.535,0.535c-14.497,20.345-12.177,48.185,5.488,65.85s45.505,19.985,65.85,5.488
		l0.535,0.535c1.6,1.6,3.77,2.5,6.033,2.5c0.458-0.001,0.915-0.037,1.367-0.108c2.708-0.44,5.04-2.154,6.267-4.608l22.861-45.727
		l45.73-22.865c0.27-0.135,0.422-0.407,0.674-0.568c0.551-0.286,1.068-0.632,1.543-1.032l62.988-62.99l10.185,10.188l-26.457,26.456
		c-1.6,1.6-2.5,3.77-2.5,6.033v91.9c0.001,2.263,0.9,4.433,2.5,6.033L340.55,509.5c1.6,1.601,3.77,2.5,6.033,2.5h91.9
		c2.263,0,4.434-0.899,6.033-2.5l64.983-64.983c1.6-1.6,2.5-3.77,2.5-6.033v-91.9c-0.001-2.263-0.9-4.433-2.5-6.033L444.517,275.567
		z M434,65.196c3.333-3.333,8.737-3.333,12.071,0c3.333,3.333,3.333,8.737,0,12.071s-8.737,3.333-12.071,0
		C430.676,73.929,430.676,68.533,434,65.196L434,65.196z M443.733,403.638v-22.817l51.2-18.744v60.304L443.733,403.638z
		 M490.386,345.569l-53.005,19.404l-17.576-17.57l19.388-53.028L490.386,345.569z M381.013,443.733h23.031l18.744,51.2H362.27
		L381.013,443.733z M406.667,426.667H378.4l-20-19.996v-28.275l20-19.996h28.267l20,19.996v28.275L406.667,426.667z
		 M290.133,362.077l51.2,18.744v22.817l-51.2,18.744V362.077z M347.686,364.973l-53.005-19.404l25.349-25.349l0.111-0.074
		l0.074-0.112l25.658-25.658l19.388,53.028L347.686,364.973z M422.568,290.133l-18.719,51.2h-22.631l-18.719-51.2H422.568z
		 M343.825,59.496l53.971,53.969l0.004,0.006l0.006,0.004l53.969,53.967c-30.561,24.414-74.589,21.961-102.248-5.698
		C321.867,134.085,319.412,90.058,343.825,59.496z M343.492,179.841l-12.067,12.067l-12.067-12.066l12.067-12.067L343.492,179.841z
		 M262.55,240.183c-0.008-2.265,0.893-4.438,2.5-6.033l42.237-42.237l12.069,12.069l-42.248,42.24
		c-3.375,3.22-8.685,3.218-12.058-0.004v-0.004C263.442,244.619,262.541,242.447,262.55,240.183L262.55,240.183z M170.667,107.754
		l51.2-18.744v60.304l-51.2-18.744V107.754z M217.319,72.503l-53.005,19.404l-17.576-17.57l19.388-53.028L217.319,72.503z
		 M107.947,170.667h23.031l18.744,51.2H89.203L107.947,170.667z M133.6,153.6h-28.267l-20-19.996v-28.275l20-19.996H133.6l20,19.996
		v28.275L133.6,153.6z M130.782,68.267h-22.631l-18.719-51.2h60.069L130.782,68.267z M72.808,21.309l19.388,53.028L74.62,91.907
		L21.614,72.503L72.808,21.309z M17.067,89.01l51.2,18.744v22.817l-51.2,18.744V89.01z M21.169,165.985l53.005-19.404l17.87,17.864
		l-19.406,53.009L21.169,165.985z M166.29,217.46l-19.406-53.009l17.876-17.87l53.005,19.404L191.97,191.78l-0.111,0.074
		l-0.074,0.112L166.29,217.46z M209.977,197.907l26.457-26.457c1.6-1.6,2.5-3.77,2.5-6.033V128h73.431
		c1.958,8.797,5.18,17.264,9.566,25.136l-14.642,14.642l-12.063-12.062c-3.188-3.215-7.531-5.019-12.058-5.008h-0.017
		c-4.529-0.012-8.874,1.788-12.067,5l-51.652,51.655L209.977,197.907z M283.15,167.775l12.07,12.07l-42.237,42.234
		c-4.802,4.8-7.5,11.312-7.5,18.102c0,6.79,2.698,13.302,7.5,18.102v0.004c4.801,4.8,11.312,7.497,18.101,7.496
		c6.789-0.001,13.299-2.699,18.099-7.5l42.239-42.236l12.069,12.069L222.817,348.796l-60.342-60.342L283.15,167.775z M114.2,431.196
		c-12.254,0.063-23.591-6.482-29.664-17.126c-6.072-10.644-5.938-23.734,0.353-34.251l46.564,46.564
		C126.239,429.507,120.279,431.17,114.2,431.196z M148.067,418.867L92.408,363.2l32.175-16.092l39.575,39.575L148.067,418.867z
		 M176.225,374.617l-39.575-39.575l16.092-32.183l55.667,55.667L176.225,374.617z M303.905,291.839l51.654-51.656
		c6.658-6.668,6.658-17.469,0-24.137l-12.068-12.067l14.64-14.643c8.091,4.515,16.81,7.799,25.869,9.745v73.985h-37.417
		c-2.263,0-4.434,0.899-6.033,2.5l-26.46,26.46L303.905,291.839z M294.235,439.052l53.005-19.404l17.87,17.863l-19.406,53.009
		L294.235,439.052z M439.356,490.527l-19.406-53.009l17.876-17.87l53.005,19.404L439.356,490.527z"/>
</g>
<g>
</g>
<g>
</g>
<g>
</g>
<g>
</g>
<g>
</g>
<g>
</g>
<g>
</g>
<g>
</g>
<g>
</g>
<g>
</g>
<g>
</g>
<g>
</g>
<g>
</g>
<g>
</g>
<g>
</g>
</svg>
