<?xml version="1.0" encoding="iso-8859-1"?>
<!-- Generator: Adobe Illustrator 19.0.0, SVG Export Plug-In . SVG Version: 6.00 Build 0)  -->
<svg version="1.1" id="Capa_1" xmlns="http://www.w3.org/2000/svg" xmlns:xlink="http://www.w3.org/1999/xlink" x="0px" y="0px"
	 viewBox="0 0 512 512" style="enable-background:new 0 0 512 512;" xml:space="preserve">
<g>
	<g transform="translate(0 1)">
		<rect x="93.866" y="221.891" style="fill:#607D8B;" width="324.267" height="263.526"/>
		<rect x="93.866" y="221.891" style="fill:#CFD8DC;" width="298.667" height="263.526"/>
		<path style="fill:#9E9E9E;" d="M170.666,74.605c-47.779,29.459-76.852,81.597-76.8,137.728V229.4h324.267v-17.067
			c0.052-56.131-29.021-108.269-76.8-137.728H170.666z"/>
		<g>
			<path style="fill:#CFD8DC;" d="M164.603,74.605c-44.985,31.316-71.489,82.921-70.737,137.728V229.4h298.667v-17.067
				c0.752-54.807-25.752-106.412-70.737-137.728H164.603z"/>
			<path style="fill:#CFD8DC;" d="M298.666,47.555V16.067c0.014-4.707,3.826-8.52,8.533-8.533h25.6
				c4.707,0.014,8.52,3.826,8.533,8.533v196.267h-42.667V104.045h-85.333v108.288h-42.667V16.067
				c0.014-4.707,3.826-8.52,8.533-8.533h25.6c4.707,0.014,8.52,3.826,8.533,8.533v31.488H298.666z"/>
		</g>
		<g>
			<path style="fill:#37474F;" d="M85.333,212.333h341.333c4.713,0,8.533,3.821,8.533,8.533v17.067c0,4.713-3.82,8.533-8.533,8.533
				H85.333c-4.713,0-8.533-3.821-8.533-8.533v-17.067C76.8,216.154,80.62,212.333,85.333,212.333z"/>
			<path style="fill:#37474F;" d="M432.804,502.467H79.196c-2.628,0-5.109-1.211-6.726-3.282c-1.617-2.071-2.19-4.772-1.553-7.321
				l4.267-17.067c0.95-3.799,4.363-6.464,8.279-6.464h345.075c3.916,0,7.329,2.665,8.279,6.464l4.267,17.067
				c0.637,2.549,0.065,5.25-1.553,7.321C437.913,501.256,435.431,502.467,432.804,502.467z"/>
		</g>
		<g>
			<path style="fill:#607D8B;" d="M82.517,212.333h316.587c4.713,0,8.533,3.821,8.533,8.533v17.067c0,4.713-3.821,8.533-8.533,8.533
				H82.517c-4.713,0-8.533-3.821-8.533-8.533v-17.067C73.984,216.154,77.804,212.333,82.517,212.333z"/>
			<path style="fill:#607D8B;" d="M405.401,502.467H76.214c-2.544-0.125-4.894-1.396-6.392-3.456
				c-1.498-2.06-1.981-4.688-1.315-7.147l3.972-17.067c0.749-3.687,3.946-6.368,7.707-6.464H401.43
				c3.761,0.096,6.958,2.777,7.707,6.464l3.972,17.067c0.666,2.458,0.183,5.086-1.315,7.147
				C410.296,501.071,407.945,502.342,405.401,502.467z"/>
		</g>
		<circle style="fill:#00838F;" cx="256" cy="75.8" r="51.2"/>
		<ellipse style="fill:#00BCD4;" cx="243.2" cy="75.8" rx="38.4" ry="51.2"/>
		<path style="fill:#FEC108;" d="M238.933,391.533h34.133c4.713,0,8.533,3.82,8.533,8.533v68.267h-51.2v-68.267
			C230.4,395.354,234.22,391.533,238.933,391.533z"/>
		<path style="fill:#7F8C8D;" d="M341.333,365.933H358.4c4.713,0,8.533,3.821,8.533,8.533v25.6c0,4.713-3.821,8.533-8.533,8.533
			h-17.067c-4.713,0-8.533-3.821-8.533-8.533v-25.6C332.8,369.754,336.62,365.933,341.333,365.933z"/>
	</g>
	<g>
		<path d="M79.195,512h353.608c5.256-0.001,10.218-2.423,13.452-6.565c3.234-4.143,4.38-9.544,3.106-14.643l-4.267-17.067
			c-1.892-7.602-8.724-12.935-16.558-12.925h-1.871V256c9.422-0.009,17.057-7.645,17.067-17.067v-17.067
			c-0.009-9.422-7.645-17.057-17.067-17.067h-0.27c-2.495-54.31-30.978-104.099-76.53-133.777V17.067
			C349.857,7.645,342.221,0.009,332.8,0h-25.6c-9.422,0.009-17.057,7.645-17.067,17.067v10.783
			c-20.485-14.377-47.782-14.377-68.267,0V17.067C221.857,7.645,214.221,0.009,204.8,0h-25.6
			c-9.422,0.009-17.057,7.645-17.067,17.067v53.956c-45.552,29.678-74.034,79.467-76.53,133.777h-0.27
			c-9.422,0.009-17.057,7.645-17.067,17.067v17.067c0.009,9.422,7.645,17.057,17.067,17.067v204.8h-1.871
			c-7.834-0.01-14.666,5.323-16.558,12.925l-4.267,17.071c-1.273,5.098-0.127,10.499,3.108,14.641
			C68.979,509.578,73.941,511.999,79.195,512z M409.37,204.8h-59.504V91.904C385.309,118.979,407.066,160.259,409.37,204.8
			L409.37,204.8z M332.8,17.067V204.8h-25.6v-97.391c11.378-18.82,11.378-42.398,0-61.218V17.067H332.8z M221.866,204.8v-79.049
			c20.485,14.377,47.782,14.377,68.267,0V204.8H221.866z M256,34.133c23.564,0,42.667,19.103,42.667,42.667
			S279.564,119.467,256,119.467s-42.667-19.103-42.667-42.667C213.361,53.247,232.447,34.161,256,34.133L256,34.133z M179.2,17.067
			h25.6v29.124c-11.378,18.82-11.378,42.398,0,61.218V204.8h-25.6V17.067z M162.133,91.904V204.8h-59.504
			C104.933,160.259,126.69,118.979,162.133,91.904L162.133,91.904z M85.333,221.867h341.333l0.012,17.067H85.333V221.867z
			 M102.4,256h307.2v204.8H290.133v-59.733c-0.009-9.422-7.645-17.057-17.067-17.067h-34.133
			c-9.422,0.009-17.057,7.645-17.067,17.067V460.8H102.4V256z M273.066,460.8h-34.133v-59.733h34.133V460.8z M83.462,477.867
			h345.075l4.288,17.067H79.195L83.462,477.867z"/>
		<path d="M341.333,418.133H358.4c9.422-0.009,17.057-7.645,17.067-17.067v-25.6c-0.009-9.422-7.645-17.057-17.067-17.067h-17.067
			c-9.422,0.009-17.057,7.645-17.067,17.067v25.6C324.276,410.488,331.911,418.124,341.333,418.133L341.333,418.133z
			 M341.333,375.467H358.4l0.012,25.6h-17.079V375.467z"/>
		<path d="M273.066,153.6c-4.713,0-8.533,3.821-8.533,8.533c0,4.713-3.82,8.533-8.533,8.533s-8.533-3.821-8.533-8.533
			c0-4.713-3.821-8.533-8.533-8.533s-8.533,3.821-8.533,8.533c0,14.138,11.462,25.6,25.6,25.6s25.6-11.462,25.6-25.6
			C281.6,157.421,277.779,153.6,273.066,153.6z"/>
		<path d="M238.933,76.8c2.264,0.003,4.435-0.897,6.033-2.5l8.533-8.533c3.281-3.341,3.256-8.701-0.054-12.012
			c-3.311-3.311-8.671-3.335-12.012-0.054l-8.533,8.533c-2.44,2.44-3.169,6.11-1.849,9.298
			C232.371,74.72,235.482,76.799,238.933,76.8z"/>
	</g>
</g>
<g>
</g>
<g>
</g>
<g>
</g>
<g>
</g>
<g>
</g>
<g>
</g>
<g>
</g>
<g>
</g>
<g>
</g>
<g>
</g>
<g>
</g>
<g>
</g>
<g>
</g>
<g>
</g>
<g>
</g>
</svg>
