<?xml version="1.0" encoding="utf-8"?>
<!-- Generator: Adobe Illustrator 23.0.2, SVG Export Plug-In . SVG Version: 6.00 Build 0)  -->
<svg version="1.1" id="Capa_1" xmlns="http://www.w3.org/2000/svg" xmlns:xlink="http://www.w3.org/1999/xlink" x="0px" y="0px"
	 viewBox="0 0 512 512" style="enable-background:new 0 0 512 512;" xml:space="preserve">
<style type="text/css">
	.st0{fill:#4CAF50;stroke:#000000;stroke-width:20;stroke-miterlimit:10;}
	.st1{fill:#388E3C;stroke:#000000;stroke-width:20;stroke-miterlimit:10;}
	.st2{stroke:#000000;stroke-width:5;stroke-miterlimit:10;}
</style>
<g>
	<path class="st0" d="M301.37,143.59c-1.81-1.88-4.31-2.94-6.92-2.94h-76.9c-2.61,0-5.11,1.06-6.92,2.94
		C196.58,158.14,73.36,287.41,73.36,342.51c0,79.52,81.94,144.19,182.64,144.19s182.64-64.67,182.64-144.19
		C438.64,287.41,315.42,158.14,301.37,143.59z"/>
	<path class="st0" d="M378.56,38.16c-16.01-18.11-57.68,5.65-81.59,21.74C286.01,44.33,269.78,25.3,256,25.3
		c-13.78,0-30.01,19.03-40.97,34.61c-23.86-16.11-65.6-39.87-81.59-21.74c-4.43,5.11-6.53,11.85-5.77,18.57
		c3.1,35.6,75.57,94.45,83.82,101.03c1.72,1.38,3.85,2.12,6.06,2.12h76.9c2.18,0,4.29-0.74,6-2.1
		c8.25-6.59,80.75-65.37,83.82-101.03C385.06,50.03,382.99,43.28,378.56,38.16z"/>
</g>
<path class="st1" d="M332.9,159.87H179.1c-5.31,0-9.61-4.3-9.61-9.61s4.3-9.61,9.61-9.61h153.8c5.31,0,9.61,4.3,9.61,9.61
	S338.21,159.87,332.9,159.87z"/>
<g>
	<path class="st2" d="M256,406.8c-26.43,2.61-50.5-15.32-55.57-41.39c-0.52-6.14,4.04-11.53,10.18-12.05
		c6.14-0.52,11.53,4.04,12.05,10.18c0.98,11.6,15.94,21.03,33.34,21.03c18.09,0,33.34-10.18,33.34-22.23
		c0-10.85-10.54-17.78-33.14-22.01l-2.42-0.44c-36.08-6.67-53.35-21.41-53.35-44.24c3.48-27.4,28.08-47.08,55.57-44.46
		c26.43-2.61,50.5,15.32,55.57,41.39c0.52,6.14-4.04,11.53-10.18,12.05s-11.53-4.04-12.05-10.18l0,0
		c-0.93-11.6-15.89-21.03-33.34-21.03c-18.09,0-33.34,10.18-33.34,22.23c0,10.85,10.56,17.78,33.19,22.01l2.45,0.47
		c36.01,6.67,53.35,21.38,53.35,44.24C308.15,389.78,283.51,409.46,256,406.8z"/>
	<path class="st2" d="M256,429.03c-6.14,0-11.11-4.98-11.11-11.11V240.08c0-6.14,4.98-11.11,11.11-11.11s11.11,4.98,11.11,11.11
		v177.83C267.11,424.05,262.14,429.03,256,429.03z"/>
</g>
</svg>
