<?xml version="1.0" encoding="utf-8"?>
<!-- Generator: Adobe Illustrator 23.0.2, SVG Export Plug-In . SVG Version: 6.00 Build 0)  -->
<svg version="1.1" id="Capa_1" xmlns="http://www.w3.org/2000/svg" xmlns:xlink="http://www.w3.org/1999/xlink" x="0px" y="0px"
	 viewBox="0 0 492.23 492.23" style="enable-background:new 0 0 492.23 492.23;" xml:space="preserve">
<style type="text/css">
	.st0{fill:#89170F;stroke:#000000;stroke-width:22;stroke-miterlimit:10;}
	.st1{stroke:#000000;stroke-width:22;stroke-miterlimit:10;}
	.st2{fill:#FFFFFF;}
</style>
<circle class="st0" cx="279.82" cy="208.87" r="154.7"/>
<path class="st1" d="M421.92,359.15c-3.6-1.5-7.75-0.67-10.51,2.08l-41.38,41.4l-60.66-60.66c-3.76-3.76-9.87-3.76-13.63,0
	l-70.33,70.31l-186-186.02c-3.83-3.7-9.93-3.59-13.63,0.24c-3.61,3.74-3.61,9.66,0,13.4L218.6,432.72c3.76,3.76,9.87,3.76,13.63,0
	l70.31-70.31l53.86,53.86l-41.38,41.38c-3.77,3.76-3.78,9.87-0.02,13.64c1.81,1.81,4.26,2.83,6.82,2.83h96.42
	c5.32,0,9.64-4.32,9.64-9.64v-96.42C427.88,364.16,425.53,360.64,421.92,359.15z"/>
<path class="st2" d="M377.16,224.95H182.49c-7.55,0-13.67-6.12-13.67-13.67v-4.84c0-7.55,6.12-13.67,13.67-13.67h194.67
	c7.55,0,13.67,6.12,13.67,13.67v4.84C390.82,218.83,384.7,224.95,377.16,224.95z"/>
</svg>
