<?xml version="1.0" encoding="iso-8859-1"?>
<!-- Generator: Adobe Illustrator 19.0.0, SVG Export Plug-In . SVG Version: 6.00 Build 0)  -->
<svg version="1.1" id="Capa_1" xmlns="http://www.w3.org/2000/svg" xmlns:xlink="http://www.w3.org/1999/xlink" x="0px" y="0px"
	 viewBox="0 0 511.993 511.993" style="enable-background:new 0 0 511.993 511.993;" xml:space="preserve">
<g>
	<g transform="translate(1)">
		<path style="fill:#CFD8DC;" d="M405.645,456.759l-23.467,23.467l-15.019-15.019l25.515-25.515
			c7.504-7.558,9.574-18.959,5.205-28.672c-3.898-13.963-6.919-28.156-9.045-42.496c5.99,20.327,13.345,40.227,22.016,59.563
			C415.219,437.8,413.15,449.201,405.645,456.759z"/>
		<path style="fill:#F5F5F5;" d="M392.674,439.692l-25.515,25.515L30.776,128.823l6.059-6.059l17.408-17.408
			c7.558-7.504,18.959-9.574,28.672-5.205c121.771,54.528,208.384,34.731,208.384,34.731l71.168,71.168l13.653,13.653
			c0,0-10.069,44.203,4.011,113.749c2.219,11.093,5.035,22.784,8.704,35.072c2.126,14.34,5.147,28.533,9.045,42.496
			C402.249,420.734,400.179,432.135,392.674,439.692z"/>
		<path style="fill:#CFD8DC;" d="M479.171,201.036l-151.04,151.04c-3.202,3.235-7.565,5.056-12.117,5.056
			c-4.552,0-8.915-1.82-12.117-5.056l-17.835-17.835c-0.191-0.116-0.363-0.26-0.512-0.427l-30.208-30.293l-84.565-84.565
			l-11.861-11.861c-3.236-3.202-5.056-7.565-5.056-12.117c0-4.552,1.821-8.915,5.056-12.117l151.04-151.04
			c6.674-6.656,17.475-6.656,24.149,0l11.861,11.861l84.651,84.651l48.555,48.555C485.826,183.561,485.826,194.362,479.171,201.036z
			"/>
		<path style="fill:#F5F5F5;" d="M460.824,182.69l-151.04,151.125c-6.516,6.475-16.978,6.664-23.723,0.427
			c-0.191-0.116-0.363-0.26-0.512-0.427l-30.208-30.293l-84.565-84.565l-11.861-11.861c-3.236-3.202-5.056-7.565-5.056-12.117
			c0-4.552,1.821-8.915,5.056-12.117l151.04-151.04c6.674-6.656,17.475-6.656,24.149,0l11.861,11.861l84.651,84.651l30.208,30.208
			C467.48,165.214,467.48,176.016,460.824,182.69z"/>
		<path style="fill:#1566C0;" d="M382.179,480.225l-18.176,18.176c-3.202,3.236-7.565,5.056-12.117,5.056
			c-4.552,0-8.915-1.821-12.117-5.056l-60.587-60.587l-12.117-12.117l-36.352-36.352L12.6,171.233
			c-2.418-2.387-4.055-5.452-4.693-8.789l318.891,318.891c3.202,3.236,7.565,5.056,12.117,5.056s8.915-1.821,12.117-5.056
			l16.128-16.128L382.179,480.225z"/>
		<path style="fill:#2296F3;" d="M367.16,465.207l-16.128,16.128c-3.202,3.236-7.565,5.056-12.117,5.056
			c-4.552,0-8.915-1.821-12.117-5.056L7.907,162.444c-1.136-5.61,0.628-11.416,4.693-15.445l18.175-18.176L367.16,465.207z"/>
		<path style="fill:#FDD834;" d="M267.064,352.993l-54.528,54.528c-3.354,3.327-8.763,3.327-12.117,0l-18.944,37.888
			c-1.245,2.454-3.588,4.166-6.305,4.604c-2.717,0.439-5.48-0.448-7.434-2.386l-17.579-17.579l-28.501-28.587l-12.117-12.117
			l-46.165-46.08c-1.938-1.954-2.825-4.717-2.386-7.434c0.439-2.717,2.15-5.06,4.604-6.305l37.888-18.944
			c-3.328-3.354-3.328-8.764,0-12.117l54.528-54.528c9.002-9.062,23.301-10.117,33.536-2.475c0.996,0.758,1.937,1.585,2.816,2.475
			l30.293,30.293l6.059,6.059l6.059,6.059l30.293,30.293c4.835,4.813,7.552,11.354,7.552,18.176S271.898,348.18,267.064,352.993z"/>
		<path style="fill:#FFEB3A;" d="M247.864,334.22l-54.528,54.528c-3.388,3.242-8.729,3.242-12.117,0l-18.944,37.888
			c-1.07,2.145-2.995,3.739-5.303,4.389c-2.307,0.65-4.782,0.296-6.814-0.976l-28.501-28.587l-12.117-12.117l-46.165-46.08
			c-1.938-1.954-2.825-4.717-2.386-7.434c0.439-2.717,2.15-5.06,4.604-6.305l37.888-18.944c-3.328-3.354-3.328-8.764,0-12.117
			l54.528-54.528c9.002-9.062,23.301-10.117,33.536-2.475l13.909,13.995l6.059,6.059l6.059,6.059l30.293,30.293
			c4.834,4.813,7.552,11.354,7.552,18.176C255.416,322.866,252.698,329.407,247.864,334.22z"/>
		<path style="fill:#607D8B;" d="M495.757,84.876c-3.995,13.569-11.195,25.979-20.992,36.181L273.123,322.7l-16.896-16.896
			l-67.925-67.925L389.944,36.236c9.513-9.204,21.017-16.095,33.621-20.139c0.853-0.341,1.707-0.597,2.56-0.853v0.085l69.547,69.547
			H495.757z"/>
		<path style="fill:#CFD8DC;" d="M477.155,69.601c-3.995,13.569-11.195,25.979-20.992,36.181L256.227,305.804l-67.925-67.925
			L389.944,36.236c9.513-9.204,21.017-16.095,33.621-20.139l53.504,53.504H477.155z"/>
		<g>
			<path style="fill:#607D8B;" d="M495.757,84.876h-0.085L426.125,15.33v-0.085c19.533-5.594,39.887-7.76,60.16-6.4
				c8.594,0.402,15.47,7.278,15.872,15.872C503.517,44.989,501.351,65.344,495.757,84.876L495.757,84.876z"/>
			<path style="fill:#607D8B;" d="M267.064,352.993l-54.528,54.528c-3.354,3.327-8.763,3.327-12.117,0l-17.067-17.067
				l-42.411-42.411l-37.461-37.461c-3.328-3.354-3.328-8.764,0-12.117l54.528-54.528c4.813-4.834,11.354-7.552,18.176-7.552
				c6.822,0,13.363,2.718,18.176,7.552l13.227,13.227l6.059,6.059l6.059,6.059l47.36,47.36c4.834,4.813,7.552,11.354,7.552,18.176
				C274.616,341.64,271.898,348.18,267.064,352.993L267.064,352.993z"/>
		</g>
		<path style="fill:#CFD8DC;" d="M249.997,335.927l-54.528,54.528c-3.354,3.327-8.763,3.327-12.117,0l-42.411-42.411l-37.461-37.461
			c-3.328-3.354-3.328-8.764,0-12.117l54.528-54.528c4.813-4.834,11.354-7.552,18.176-7.552c6.822,0,13.363,2.718,18.176,7.552
			l13.227,13.227l6.059,6.059l6.059,6.059l30.293,30.293c4.834,4.813,7.552,11.354,7.552,18.176
			C257.549,324.573,254.831,331.114,249.997,335.927z"/>
		<path style="fill:#F5F5F5;" d="M412.696,134.562l-18.176,18.176l-12.032,12.032l-48.299,48.299v0.085l-36.352,36.267
			l-48.299,48.299l-36.267-36.267l48.299-48.299l36.352-36.267v-0.085l48.299-48.299l12.032-12.032h0.085l18.091-18.176
			c3.354-3.327,8.764-3.327,12.117,0l24.149,24.149C416.024,125.798,416.024,131.208,412.696,134.562z"/>
	</g>
	<g>
		<path d="M110.225,280.92l-12.158,12.158c-3.671,3.693-5.45,8.863-4.829,14.033l-30.846,15.471
			c-4.914,2.459-8.348,7.128-9.232,12.551c-0.884,5.423,0.89,10.941,4.769,14.833l52.05,52.046l52.046,52.05
			c3.892,3.879,9.41,5.653,14.833,4.769c5.423-0.884,10.092-4.318,12.551-9.232l15.471-30.846c0.636,0.097,1.278,0.158,1.921,0.184
			c4.544,0.007,8.902-1.797,12.112-5.013l12.158-12.158l102.741,102.746c4.792,4.811,11.31,7.504,18.1,7.479h0.046
			c6.816,0.009,13.352-2.705,18.158-7.538l41.7-41.7c10.02-10.062,12.809-25.256,7.017-38.221
			c-16.752-36.928-28.167-76.05-33.904-116.192l101.279-101.279c9.992-10.015,9.992-26.227,0-36.242l-24.183-24.183l17.85-17.85
			c0.158-0.158,0.308-0.321,0.45-0.483c0.425-0.4,0.85-0.812,1.312-1.275c29.325-29.325,31.417-77.013,30.05-102.892
			c-0.659-12.906-10.992-23.212-23.9-23.837c-25.821-1.338-73.496,0.725-102.904,30.129c-0.413,0.421-0.808,0.821-1.192,1.237
			c-0.167,0.142-0.329,0.292-0.488,0.45l-17.85,17.85l-24.183-24.183c-10.015-9.992-26.227-9.992-36.242,0L203.65,127.062
			c-40.128-5.734-79.237-17.143-116.154-33.883c-12.971-5.816-28.185-3.034-38.258,6.996l-41.7,41.7
			c-10.027,10.013-10.053,26.255-0.058,36.3L110.225,280.92z M98.275,208.266L79.991,226.55l-24.194-24.194l18.283-18.285
			L98.275,208.266z M92.057,238.617l18.285-18.285l30.235,30.235l-18.285,18.285L92.057,238.617z M164.746,250.533
			c3.235-3.239,7.626-5.058,12.204-5.054c4.523-0.011,8.864,1.781,12.062,4.979l30.225,30.229l-36.475,36.475l-24.183-24.183
			c-3.334-3.322-8.728-3.318-12.056,0.01c-3.328,3.328-3.333,8.722-0.01,12.056l24.183,24.183l-18.275,18.275l-42.313-42.312
			L164.746,250.533z M389.527,146.66l-24.187-24.186l18.151-18.149l24.175,24.196L389.527,146.66z M353.273,134.539l24.186,24.186
			l-36.28,36.279l-24.188-24.188L353.273,134.539z M304.925,182.883l24.189,24.189l-36.28,36.279l-24.19-24.19L304.925,182.883z
			 M256.577,231.226l24.191,24.191l-30.238,30.237l-24.192-24.192L256.577,231.226z M102.396,321.612l37.958,37.958l-24.337,24.333
			l-45.975-46.063L102.396,321.612z M174.092,441.995l-46.012-46.017l24.342-24.342l37.954,37.954L174.092,441.995z M206.8,401.883
			l-42.313-42.313l18.275-18.275l24.183,24.184c2.154,2.162,5.299,3.008,8.247,2.22c2.948-0.788,5.251-3.091,6.039-6.039
			c0.788-2.948-0.058-6.093-2.22-8.247l-24.183-24.183l36.475-36.475l30.229,30.225c6.667,6.727,6.633,17.581-0.075,24.267
			L206.8,401.883z M261.423,371.414l30.235,30.235l-18.285,18.285L243.138,389.7L261.423,371.414z M285.44,432.001l18.285-18.285
			l24.195,24.195l-18.286,18.284L285.44,432.001z M358.05,492.387c-1.621,1.627-3.824,2.541-6.121,2.537h-0.017
			c-2.26,0.012-4.431-0.881-6.029-2.479L321.7,468.262l18.286-18.284l30.236,30.236L358.05,492.387z M403.271,431.537
			c2.902,6.497,1.502,14.11-3.521,19.15l-17.46,17.46l-108.8-108.8l0.035-0.035c4.714-4.717,7.942-10.713,9.284-17.245
			l16.079,16.079c10.012,9.994,26.226,9.994,36.238,0l34.807-34.807C376.456,360.661,387.657,397.014,403.271,431.537
			L403.271,431.537z M474.142,182.887c3.337,3.346,3.337,8.762,0,12.108L323.058,346.078c-3.348,3.329-8.756,3.329-12.104,0
			l-24.183-24.183l30.236-30.236l12.097,12.095c3.332,3.332,8.735,3.332,12.067,0c3.332-3.332,3.332-8.735,0-12.067l-12.098-12.095
			l36.28-36.282l12.097,12.097c3.332,3.332,8.734,3.332,12.067,0c3.332-3.332,3.332-8.735,0-12.067l-12.097-12.096l36.279-36.28
			l12.098,12.097c3.334,3.32,8.727,3.315,12.054-0.013s3.332-8.72,0.012-12.054l-12.097-12.097l24.193-24.194L474.142,182.887z
			 M486.821,17.337c4.231,0.162,7.633,3.537,7.829,7.767c0.835,14.414-0.047,28.876-2.626,43.082l-48.217-48.217
			C457.991,17.395,472.429,16.511,486.821,17.337L486.821,17.337z M394.433,45.02c0.534-0.403,1.02-0.867,1.446-1.383
			c0.358-0.433,0.721-0.783,1.15-1.217c7.944-7.677,17.447-13.554,27.865-17.231L486.8,87.095
			c-3.686,10.433-9.575,19.95-17.267,27.904c-0.396,0.392-0.746,0.754-1.179,1.112c-0.502,0.413-0.954,0.885-1.346,1.404
			l-193.4,193.404l-12.106-12.106l158.231-158.227c6.658-6.675,6.658-17.479,0-24.154l-24.175-24.175
			c-6.673-6.662-17.481-6.662-24.154,0L213.177,250.489l-12.106-12.106L394.433,45.02z M316.996,37.849
			c3.346-3.339,8.763-3.339,12.108,0l24.183,24.183l-24.194,24.193l-12.097-12.097c-3.332-3.332-8.735-3.332-12.067,0
			c-3.332,3.332-3.332,8.735,0,12.067l12.097,12.097l-36.28,36.279l-12.097-12.097c-3.332-3.332-8.735-3.332-12.067,0
			c-3.332,3.332-3.332,8.735,0,12.067l12.097,12.097l-36.281,36.28l-12.095-12.098c-3.332-3.332-8.735-3.332-12.067,0
			c-3.332,3.332-3.332,8.735,0,12.067l12.095,12.097l-30.236,30.236l-24.183-24.183c-3.337-3.345-3.337-8.76,0-12.104
			L316.996,37.849z M61.304,112.241c5.054-5.028,12.684-6.42,19.188-3.5c34.512,15.604,70.852,26.797,108.162,33.317l-34.807,34.807
			c-9.992,10.013-9.992,26.225,0,36.237l16.078,16.079c-6.532,1.342-12.528,4.57-17.245,9.284l-0.035,0.035l-108.8-108.8
			L61.304,112.241z M19.604,153.941l12.173-12.173l30.236,30.236L43.73,190.289l-24.184-24.185c-1.603-1.6-2.497-3.777-2.479-6.042
			C17.063,157.765,17.977,155.562,19.604,153.941z"/>
		<path d="M413.375,74.424c2.5-2.475,10.808-1.396,18.2,5.992c7.383,7.383,8.479,15.713,5.992,18.2
			c-3.332,3.332-3.332,8.735,0,12.067c3.332,3.332,8.735,3.332,12.067,0c10.192-10.188,7.558-28.783-5.992-42.333
			c-13.55-13.546-32.142-16.175-42.333-5.992c-3.332,3.332-3.332,8.735,0,12.067S410.043,77.756,413.375,74.424L413.375,74.424z"/>
	</g>
</g>
<g>
</g>
<g>
</g>
<g>
</g>
<g>
</g>
<g>
</g>
<g>
</g>
<g>
</g>
<g>
</g>
<g>
</g>
<g>
</g>
<g>
</g>
<g>
</g>
<g>
</g>
<g>
</g>
<g>
</g>
</svg>
