<?xml version="1.0" encoding="utf-8"?>
<!-- Generator: Adobe Illustrator 23.0.2, SVG Export Plug-In . SVG Version: 6.00 Build 0)  -->
<svg version="1.1" id="Capa_1" xmlns="http://www.w3.org/2000/svg" xmlns:xlink="http://www.w3.org/1999/xlink" x="0px" y="0px"
	 viewBox="0 0 512 512" style="enable-background:new 0 0 512 512;" xml:space="preserve">
<style type="text/css">
	.st0{fill:#004837;}
	.st1{fill:#009475;}
	.st2{fill:#FEC108;}
	.st3{fill:#FDD834;}
	.st4{fill:#FFEB3A;}
	.st5{fill:#FFB301;}
	.st6{fill:#FFFFFF;}
</style>
<g>
	<path class="st0" d="M230.43,8.53h51.2c9.43,0,17.07,7.64,17.07,17.07v29.87h-85.33V25.6C213.36,16.17,221,8.53,230.43,8.53z"/>
	<path class="st0" d="M315.76,51.2v51.2H196.29V51.2c0.01-4.71,3.83-8.52,8.53-8.53h102.4C311.93,42.68,315.75,46.49,315.76,51.2z"
		/>
</g>
<g>
	<path class="st1" d="M230.43,8.53h25.6c9.43,0,17.07,7.64,17.07,17.07v29.87h-59.73V25.6C213.36,16.17,221,8.53,230.43,8.53z"/>
	<path class="st1" d="M290.16,51.2v51.2h-93.87V51.2c-0.43-4.19,2.54-7.96,6.71-8.53h80.46C287.62,43.24,290.59,47.01,290.16,51.2z"
		/>
</g>
<g>
	<rect x="145.09" y="439.47" class="st2" width="34.13" height="64"/>
	<rect x="332.83" y="435.2" class="st2" width="34.13" height="68.27"/>
</g>
<g>
	<path class="st3" d="M187.76,409.6v42.67c-0.01,4.71-3.83,8.52-8.53,8.53h-34.13c-4.71-0.01-8.52-3.83-8.53-8.53V409.6H187.76z"/>
	<path class="st3" d="M375.49,409.6v42.67c-0.01,4.71-3.83,8.52-8.53,8.53h-34.13c-4.71-0.01-8.52-3.83-8.53-8.53V409.6H375.49z"/>
</g>
<g>
	<path class="st4" d="M162.16,409.6v42.67c-0.01,4.71-3.83,8.52-8.53,8.53h-8.53c-4.71-0.01-8.52-3.83-8.53-8.53V409.6H162.16z"/>
	<path class="st4" d="M349.89,409.6v42.67c-0.01,4.71-3.83,8.52-8.53,8.53h-8.53c-4.71-0.01-8.52-3.83-8.53-8.53V409.6H349.89z"/>
</g>
<path class="st5" d="M418.16,349.87l-9.56,25.6l-6.4,17.07l-5.46,14.51c-2.53,6.67-8.91,11.08-16.04,11.09H131.36
	c-7.13-0.01-13.52-4.42-16.04-11.09l-21.42-57.17l8.53-25.6h307.2L418.16,349.87z"/>
<path class="st2" d="M392.56,349.87l-9.56,25.6l-6.4,17.07l-5.46,14.51c-2.53,6.67-8.91,11.08-16.04,11.09H131.36
	c-7.13-0.01-13.52-4.42-16.04-11.09l-21.42-57.17l8.53-25.6h281.6L392.56,349.87z"/>
<path class="st0" d="M418.16,349.87H93.89l83.37-250.2c1.2-3.45,4.45-5.78,8.11-5.8h141.31c3.66,0.03,6.9,2.35,8.11,5.8
	l69.12,207.53l5.72,17.07L418.16,349.87z"/>
<path class="st1" d="M392.56,349.87H93.89l83.37-250.2c1.2-3.45,4.45-5.78,8.11-5.8h115.71c3.66,0.03,6.9,2.35,8.11,5.8
	l69.12,207.53l5.72,17.07L392.56,349.87z"/>
<circle class="st6" cx="307.23" cy="221.87" r="25.6"/>
<path d="M85.42,350.05c-0.04,0.68,0.06,1.36,0.28,1.99c0.05,0.27,0.12,0.55,0.2,0.82l21.45,57.19c3.36,8.84,11.3,15.12,20.68,16.36
	v25.86c0.02,6.07,3.27,11.67,8.53,14.69v27.97h-8.53c-4.71,0-8.53,3.82-8.53,8.53c0,4.71,3.82,8.53,8.53,8.53h68.27
	c4.71,0,8.53-3.82,8.53-8.53c0-4.71-3.82-8.53-8.53-8.53h-8.53v-27.97c5.26-3.02,8.51-8.62,8.53-14.69v-25.6h119.47v25.6
	c0.02,6.07,3.27,11.67,8.53,14.69v27.97h-8.53c-4.71,0-8.53,3.82-8.53,8.53c0,4.71,3.82,8.53,8.53,8.53h68.27
	c4.71,0,8.53-3.82,8.53-8.53c0-4.71-3.82-8.53-8.53-8.53h-8.53v-27.97c5.26-3.02,8.51-8.62,8.53-14.69v-25.86
	c9.38-1.23,17.32-7.52,20.68-16.36l21.45-57.19c0.15-0.62,0.3-1.24,0.45-1.86c0.16-0.99,0.1-2.01-0.17-2.97
	c-0.04-0.29-0.1-0.58-0.18-0.86L342.87,97c-2.32-6.97-8.84-11.67-16.19-11.67h-2.38V51.2c-0.01-9.42-7.64-17.06-17.07-17.07V25.6
	c-0.02-14.13-11.47-25.58-25.6-25.6h-51.2c-14.13,0.01-25.59,11.47-25.6,25.6v8.53c-9.42,0.01-17.06,7.65-17.07,17.07v34.13h-2.38
	c-7.35-0.01-13.87,4.69-16.19,11.67L85.8,347.17c-0.07,0.29-0.13,0.57-0.18,0.86C85.42,348.68,85.35,349.37,85.42,350.05
	L85.42,350.05z M153.63,494.93v-25.6h17.07v25.6H153.63z M179.24,452.27h-34.15v-25.6h34.14L179.24,452.27z M366.97,452.27h-34.15
	v-25.6h34.14L366.97,452.27z M341.36,494.93v-25.6h17.07v25.6H341.36z M380.73,409.6H131.32c-3.55-0.01-6.73-2.21-7.99-5.54
	l-17.12-45.66h299.64l-6.4,17.07h-58.09c-4.71,0-8.53,3.82-8.53,8.53s3.82,8.53,8.53,8.53h51.69l-4.32,11.52
	C387.47,407.38,384.29,409.59,380.73,409.6z M216.89,85.33l34.13-34.13h18.53l-34.13,34.13H216.89z M293.69,51.2h13.53v34.13h-47.67
	L293.69,51.2z M221.89,25.6c0.01-4.71,3.82-8.53,8.53-8.53h51.2c4.71,0.01,8.53,3.82,8.53,8.53v8.53h-68.27L221.89,25.6L221.89,25.6
	z M213.36,51.2h13.53l-22.07,22.07V51.2H213.36z M185.38,102.4h141.3l68.27,204.8h-53.59c-4.71,0-8.53,3.82-8.53,8.53
	c0,4.71,3.82,8.53,8.53,8.53h59.27l5.69,17.07H105.73L185.38,102.4z"/>
<path d="M307.23,307.2h-25.6c-4.71,0-8.53,3.82-8.53,8.53c0,4.71,3.82,8.53,8.53,8.53h25.6c4.71,0,8.53-3.82,8.53-8.53
	C315.76,311.02,311.94,307.2,307.23,307.2z"/>
<path d="M315.76,375.47h-42.67c-4.71,0-8.53,3.82-8.53,8.53s3.82,8.53,8.53,8.53h42.67c4.71,0,8.53-3.82,8.53-8.53
	S320.47,375.47,315.76,375.47z"/>
<path d="M248.26,245.49h-16.29v-16.28c-0.01-7.99-5.4-14.47-12.06-14.48h-30.16c-6.66,0.01-12.06,6.49-12.06,14.48v16.28h-16.29
	c-7.99,0.01-14.47,5.4-14.48,12.06v30.16c0.01,6.66,6.49,12.06,14.48,12.06h16.29v16.29c0.01,7.99,5.4,14.47,12.06,14.48h30.16
	c6.66-0.01,12.06-6.49,12.06-14.48v-16.29h16.29c7.99-0.01,14.47-5.4,14.48-12.06v-30.16C262.73,250.9,256.25,245.5,248.26,245.49z"
	/>
<polygon class="st6" points="248.26,287.72 248.26,257.56 219.91,257.56 219.91,257.56 219.91,229.21 189.75,229.21 189.75,257.56 
	161.39,257.56 161.39,287.73 189.75,287.73 189.75,299.78 189.75,307.2 189.75,316.08 219.92,316.08 219.91,299.78 219.91,299.78 
	219.91,287.72 "/>
<path d="M307.23,187.73c-18.85,0-34.13,15.28-34.13,34.13S288.38,256,307.23,256s34.13-15.28,34.13-34.13
	C341.34,203.02,326.07,187.75,307.23,187.73z M307.23,238.93c-9.43,0-17.07-7.64-17.07-17.07s7.64-17.07,17.07-17.07
	s17.07,7.64,17.07,17.07C324.28,231.29,316.65,238.92,307.23,238.93L307.23,238.93z"/>
</svg>
