<?xml version="1.0" encoding="utf-8"?>
<!-- Generator: Adobe Illustrator 23.0.2, SVG Export Plug-In . SVG Version: 6.00 Build 0)  -->
<svg version="1.1" id="Capa_1" xmlns="http://www.w3.org/2000/svg" xmlns:xlink="http://www.w3.org/1999/xlink" x="0px" y="0px"
	 viewBox="0 0 512.13 512.13" style="enable-background:new 0 0 512.13 512.13;" xml:space="preserve">
<style type="text/css">
	.st0{fill:#E62943;}
	.st1{fill:#37474F;}
	.st2{fill:#686867;}
	.st3{fill:#343333;}
	.st4{fill:#CAC14F;}
	.st5{fill:#FCEE6F;}
	.st6{fill:#607D8B;}
	.st7{fill:#7F1524;}
	.st8{fill:#3A4C54;}
	.st9{fill:#F5F5F5;}
</style>
<polygon class="st0" points="401.13,247.59 367,315.86 270.83,333.87 243.26,339.07 215.7,333.87 119.53,315.86 85.4,247.59 
	119.53,102.53 243.26,40.66 315.8,76.93 376.98,144.85 "/>
<polygon class="st1" points="426.73,247.59 392.6,315.86 296.43,333.87 332.86,239.06 "/>
<polygon class="st0" points="367,315.86 300.86,328.23 335.17,239.06 400.53,245.03 401.13,247.59 "/>
<polygon class="st1" points="429.04,247.59 394.9,315.86 298.73,333.87 298.9,333.44 392.6,315.86 426.73,247.59 426.64,247.34 "/>
<rect x="239" y="338.22" class="st2" width="34.13" height="131.24"/>
<path class="st3" d="M213.4,469.46h85.33c4.71,0,8.53,3.82,8.53,8.53v25.6h-102.4v-25.6C204.86,473.28,208.68,469.46,213.4,469.46z"
	/>
<polygon class="st2" points="64.92,443.86 145.04,320.64 175.42,326.36 99.05,443.86 "/>
<path class="st3" d="M34.2,443.86h85.33c4.71,0,8.53,3.82,8.53,8.53v25.6H25.66v-25.6C25.66,447.68,29.48,443.86,34.2,443.86z"/>
<polygon class="st2" points="447.21,443.86 367.08,320.64 336.7,326.36 413.08,443.86 "/>
<path class="st3" d="M486.46,477.48h-102.4v-25.6c0-4.71,3.82-8.53,8.53-8.53h85.33c4.71,0,8.53,3.82,8.53,8.53L486.46,477.48
	L486.46,477.48z"/>
<g>
	<path class="st2" d="M213.4,469.46h59.73c4.71,0,8.53,3.82,8.53,8.53v25.6h-76.8v-25.6C204.86,473.28,208.68,469.46,213.4,469.46z"
		/>
	<path class="st2" d="M34.2,443.86h59.73c4.71,0,8.53,3.82,8.53,8.53v25.6h-76.8v-25.6C25.66,447.68,29.48,443.86,34.2,443.86z"/>
	<path class="st2" d="M460.86,477.48h-76.8v-25.6c0-4.71,3.82-8.53,8.53-8.53h59.73c4.71,0,8.53,3.82,8.53,8.53L460.86,477.48
		L460.86,477.48z"/>
</g>
<polygon class="st0" points="215.7,333.87 119.53,315.86 85.4,247.59 179.26,239.06 "/>
<polygon class="st4" points="332.86,239.06 296.43,333.87 256.06,341.46 215.7,333.87 179.26,239.06 "/>
<polygon class="st5" points="332.86,239.06 179.26,239.06 204.86,119.59 307.26,119.59 "/>
<polygon class="st5" points="307.26,119.59 204.86,119.59 256.06,34.26 "/>
<circle class="st6" cx="136.6" cy="34.26" r="25.6"/>
<g>
	<polygon class="st7" points="426.73,247.59 392.6,315.86 298.9,333.44 300.86,328.23 367,315.86 401.13,247.59 400.53,245.03 
		426.64,247.34 	"/>
	<polygon class="st7" points="270.83,333.87 300.86,328.23 298.9,333.44 296.43,333.87 256.06,341.46 243.26,339.07 	"/>
	<polygon class="st7" points="426.64,247.34 400.53,245.03 376.98,144.85 315.8,76.93 243.26,40.66 256.06,34.26 341.4,76.93 
		402.58,144.85 	"/>
</g>
<circle class="st8" cx="409.66" cy="76.93" r="68.27"/>
<ellipse class="st6" cx="396.86" cy="76.93" rx="55.47" ry="68.27"/>
<circle class="st9" cx="409.66" cy="76.93" r="25.6"/>
<path d="M34.2,435.33c-9.42,0.01-17.06,7.64-17.07,17.07v25.6c0,4.71,3.82,8.53,8.53,8.53h102.4c4.71,0,8.53-3.82,8.53-8.53v-25.6
	c-0.01-9.42-7.65-17.06-17.07-17.07h-4.76l30.15-46.39l85.54,22.82v49.17H213.4c-9.42,0.01-17.06,7.64-17.07,17.07v25.6
	c0,4.71,3.82,8.53,8.53,8.53h102.4c4.71,0,8.53-3.82,8.53-8.53v-25.6c-0.01-9.42-7.64-17.06-17.07-17.07h-17.07v-49.17l85.54-22.82
	l30.15,46.39h-4.76c-9.42,0.01-17.06,7.64-17.07,17.07v25.6c0,4.71,3.82,8.53,8.53,8.53h102.4c2.26,0,4.43-0.9,6.04-2.5
	c1.6-1.6,2.5-3.77,2.5-6.04v-25.6c-0.01-9.42-7.64-17.06-17.07-17.07h-26.09l-70.65-108.65l12.98-2.43
	c2.62-0.49,4.87-2.18,6.06-4.57l34.11-68.23l0-0.01l0.02-0.04c0.45-0.92,0.74-1.92,0.84-2.94l0.03-0.1
	c0.02-0.24-0.08-0.45-0.08-0.68c0.04-0.68,0.01-1.37-0.12-2.04l-21.65-92.1c40.16-1.93,72.01-34.53,73.03-74.72
	S457.27,4.46,417.26,0.5s-76.29,23.62-83.18,63.23l-74.2-37.1c-0.18-0.09-0.38-0.08-0.57-0.15c-0.28-0.13-0.58-0.25-0.87-0.35
	c-0.25-0.07-0.5-0.12-0.76-0.17c-0.26-0.05-0.51-0.11-0.77-0.13c-0.28-0.02-0.57-0.02-0.85-0.01c-0.29-0.01-0.57-0.01-0.85,0.01
	c-0.26,0.03-0.5,0.08-0.75,0.13c-0.27,0.05-0.52,0.09-0.78,0.17c-0.29,0.1-0.58,0.22-0.86,0.35c-0.19,0.08-0.39,0.06-0.57,0.15
	L145.13,80.19v-13c16.64-4.3,27.49-20.3,25.33-37.35C168.29,12.78,153.79,0,136.6,0s-31.69,12.78-33.86,29.83
	s8.68,33.05,25.33,37.35v21.54l-12.35,6.18c-2.26,1.13-3.91,3.21-4.49,5.68L77.09,245.64c-0.12,0.67-0.16,1.35-0.11,2.02
	c0,0.24-0.1,0.46-0.08,0.7l0.03,0.1c0.1,1.02,0.38,2.02,0.83,2.94l34.13,68.27c1.19,2.39,3.44,4.08,6.06,4.57l12.98,2.43
	L60.29,435.33L34.2,435.33L34.2,435.33z M119.53,34.26c0-9.43,7.64-17.07,17.07-17.07s17.07,7.64,17.07,17.07
	s-7.64,17.07-17.07,17.07C127.18,51.32,119.54,43.68,119.53,34.26L119.53,34.26z M119.53,469.46H34.2v-17.07h85.33L119.53,469.46
	L119.53,469.46z M154.71,373.89l24.76-38.1l50.99,9.56v48.75L154.71,373.89z M395.58,152.37l20.13,85.65l-75.81-6.86l-24.29-113.36
	c-0.1-0.31-0.22-0.61-0.36-0.9c-0.12-0.37-0.26-0.73-0.42-1.08c-0.1-0.2-0.13-0.43-0.25-0.63L278.46,55l54.68,27.34
	C335.64,117.15,361.28,145.92,395.58,152.37z M292.19,111.06h-72.26l36.13-60.21L292.19,111.06z M211.76,128.13h88.6l21.94,102.4
	l-132.5,0.03L211.76,128.13z M320.45,247.56l-30.3,78.82l-34.09,6.39l-34.09-6.39l-30.29-78.79L320.45,247.56z M298.73,495.06H213.4
	v-17.07h85.33V495.06z M247.53,460.93V348.55l6.95,1.3c0.51,0.09,1.03,0.14,1.55,0.14l0.02,0l0.01,0l0.01,0l0.02,0
	c0.52,0,1.04-0.05,1.55-0.14l6.95-1.3v112.38H247.53z M281.66,394.1v-48.75l50.99-9.56l24.77,38.1L281.66,394.1z M477.93,469.46
	H392.6v-17.07h85.33V469.46z M431.49,435.33h-13.77L350.8,332.38l12.24-2.3L431.49,435.33z M386.86,308.25l-21.26,3.99l-0.04,0.01
	l-55.69,10.44l28.65-74.55l74.99,6.82L386.86,308.25z M409.66,17.19c32.99,0,59.73,26.74,59.73,59.73s-26.74,59.73-59.73,59.73
	s-59.73-26.74-59.73-59.73C349.97,43.95,376.69,17.23,409.66,17.19z M126.92,108.37L233.67,55l-36.12,60.2
	c-0.12,0.19-0.15,0.43-0.25,0.63c-0.17,0.35-0.31,0.71-0.43,1.08c-0.13,0.29-0.25,0.59-0.35,0.9l-24.28,113.32l-75.82,6.89
	L126.92,108.37z M98.62,254.96l74.98-6.85l28.66,74.58l-55.68-10.44l-0.05-0.01l-21.26-3.99L98.62,254.96z M149.08,330.08l12.25,2.3
	l-26.95,41.47l-0.01,0.01l-39.95,61.47H80.64L149.08,330.08z"/>
<path d="M409.66,111.06c18.85,0,34.13-15.28,34.13-34.13s-15.28-34.13-34.13-34.13c-18.85,0-34.13,15.28-34.13,34.13
	C375.55,95.77,390.82,111.04,409.66,111.06L409.66,111.06z M409.66,59.86c9.43,0,17.07,7.64,17.07,17.07s-7.64,17.07-17.07,17.07
	s-17.07-7.64-17.07-17.07C392.61,67.51,400.24,59.87,409.66,59.86z"/>
</svg>
