<?xml version="1.0" encoding="utf-8"?>
<!-- Generator: Adobe Illustrator 24.0.1, SVG Export Plug-In . SVG Version: 6.00 Build 0)  -->
<svg version="1.1" id="Layer_1" xmlns="http://www.w3.org/2000/svg" xmlns:xlink="http://www.w3.org/1999/xlink" x="0px" y="0px"
	 viewBox="0 0 512 512" style="enable-background:new 0 0 512 512;" xml:space="preserve">
<style type="text/css">
	.st0{fill:#040000;}
</style>
<path class="st0" d="M500.5,497.1l-64-149.3c-0.1-0.2-0.3-0.4-0.4-0.6c-0.6-1.2-1.4-2.2-2.4-3.1c-0.3-0.2-0.5-0.6-0.8-0.8
	c-0.1-0.1-0.1-0.2-0.2-0.2l-59.9-39.9c-1.1-9.7-4.7-18.5-10.3-25.9H384c3.2,0,6.3-1.5,8.3-4c2-2.5,2.8-5.8,2.1-9l-39-175.3
	C352.2,74.3,339.3,64,324.2,64h-57.6V10.7C266.7,4.8,261.9,0,256,0s-10.7,4.8-10.7,10.7V64h-57.6c-15.1,0-28,10.3-31.2,25.1
	l-39,175.3c-0.7,3.2,0.1,6.5,2.1,9c2,2.5,5.1,4,8.3,4h21.6c-5.6,7.4-9.2,16.2-10.3,25.9l-59.9,39.9c-0.1,0.1-0.1,0.2-0.2,0.2
	c-0.3,0.2-0.5,0.5-0.8,0.8c-1,0.9-1.8,1.9-2.4,3.1c-0.1,0.2-0.4,0.3-0.5,0.6l-64,149.3c-2.3,5.4,0.2,11.7,5.6,14
	c1.4,0.6,2.8,0.9,4.2,0.9c4.1,0,8.1-2.4,9.8-6.5L55.8,448h82.9v10.7c0,5.9,4.8,10.7,10.7,10.7H224v-160c0-5.9,4.8-10.7,10.7-10.7
	s10.7,4.8,10.7,10.7v192c0,5.9,4.8,10.7,10.7,10.7c5.9,0,10.7-4.8,10.7-10.7v-32h96c5.9,0,10.7-4.8,10.7-10.7V448h82.9l24.6,57.5
	c1.7,4.1,5.7,6.5,9.8,6.5c1.4,0,2.8-0.3,4.2-0.9C500.3,508.8,502.8,502.5,500.5,497.1z M64.9,426.7l22.9-53.5l40.1,53.5H64.9z
	 M138.7,405.3l-38-50.7l38-25.4V405.3z M307.1,209.2c-2,2.6-5.1,4.1-8.4,4.1h-85.3c-3.3,0-6.4-1.5-8.4-4.1c-2-2.6-2.7-6-1.9-9.2
	l21.3-85.3c1.2-4.8,5.5-8.1,10.3-8.1h42.7c4.9,0,9.2,3.3,10.3,8.1l21.3,85.3C309.8,203.3,309.1,206.7,307.1,209.2z M373.3,329.3
	l38,25.3l-38,50.7V329.3z M384,426.7l40.1-53.5l22.9,53.5H384z"/>
</svg>
