<?xml version="1.0" encoding="utf-8"?>
<!-- Generator: Adobe Illustrator 23.0.2, SVG Export Plug-In . SVG Version: 6.00 Build 0)  -->
<svg version="1.1" id="Capa_1" xmlns="http://www.w3.org/2000/svg" xmlns:xlink="http://www.w3.org/1999/xlink" x="0px" y="0px"
	 viewBox="0 0 584.64 621.43" style="enable-background:new 0 0 584.64 621.43;" xml:space="preserve">
<style type="text/css">
	.st0{fill:#7E8586;}
	.st1{fill:#CFCFD0;}
	.st2{fill:#607D8B;}
	.st3{fill:#CFD8DC;}
	.st4{fill:#F5F5F5;}
	.st5{fill:#00838F;}
	.st6{fill:#00BCD4;}
	.st7{fill:#FEC108;}
</style>
<path class="st0" d="M415.29,137.83v61.43l0,194.66c0,5.44-2.16,10.66-6,14.51c-3.85,3.85-9.07,6.01-14.51,6h-50.69l-154.23,0
	c-5.44,0-10.66-2.16-14.51-6c-3.85-3.85-6.01-9.07-6-14.51l0-194.66l0-61.42c0-5.44,2.16-10.66,6-14.51c3.85-3.85,9.07-6.01,14.51-6
	l0.54-0.06h143.49l30.71,0.06l30.17,0c5.44,0,10.66,2.16,14.51,6C413.13,127.17,415.29,132.39,415.29,137.83z"/>
<path class="st1" d="M385.12,137.83v61.43v194.66c0,5.44-2.16,10.66-6,14.51c-3.85,3.85-9.07,6.01-14.51,6l-20.52,0l-154.23,0
	c-5.44,0-10.66-2.16-14.51-6c-3.85-3.85-6.01-9.07-6-14.51l0-194.66l0-61.42c0-5.44,2.16-10.66,6-14.51c3.85-3.85,9.07-6.01,14.51-6
	l0.54-0.06h143.49l30.71,0.06c5.44,0,10.66,2.16,14.51,6C382.96,127.17,385.12,132.39,385.12,137.83L385.12,137.83z"/>
<g>
	<path class="st2" d="M350.18,250.48h24.14l-0.06,114.46l0.06,17.08l-0.06,32.4l0.06,110.96l-0.06,17.68l0,16.53l0.06,17.08v11.95
		c-0.08,11.3-9.22,20.44-20.52,20.52l-24.14,0c11.3-0.08,20.44-9.22,20.52-20.52v-11.95l-0.06-17.08l0-16.53l0.06-17.68
		l-0.06-110.96l0.06-32.4l-0.06-17.08L350.18,250.48z"/>
	<path class="st2" d="M412.82,196.78l99.74,99.74c6.55,6.55,10,15.58,9.48,24.83c-0.52,9.25-4.95,17.84-12.2,23.62h-0.12
		c-9.14,7.28-21.47,9.12-32.34,4.83c2.95-1.21,5.72-2.83,8.21-4.83h0.12c7.24-5.78,11.68-14.37,12.2-23.62
		c0.52-9.25-2.93-18.28-9.48-24.83l-99.74-99.74c-11.55-11.56-27.23-18.03-43.56-17.98l24.14,0
		C385.59,178.75,401.27,185.23,412.82,196.78L412.82,196.78z"/>
</g>
<g>
	<path class="st3" d="M388.68,196.78l99.74,99.74c6.55,6.55,10,15.58,9.48,24.83c-0.52,9.25-4.95,17.84-12.2,23.62h-0.12
		c-2.49,1.99-5.25,3.62-8.21,4.83c-4.09-1.62-7.81-4.06-10.92-7.18l-92.14-92.14l0,0l-24.14,0l-0.06,114.46l0.06,17.08l-0.06,32.4
		l0.06,110.96l-0.06,17.68l0,16.53l0.06,17.08v11.95c-0.08,11.3-9.22,20.44-20.52,20.52l-16.89,0c-4.29,0.04-8.49-1.32-11.95-3.86
		c-5.33-3.85-8.49-10.02-8.51-16.59c0.09,8.06-4.67,15.39-12.07,18.58c-2.61,1.28-5.48,1.93-8.39,1.87l-24.14,0h-16.9
		c-11.3-0.08-20.44-9.22-20.52-20.52v-11.95l0.06-17.08l-0.06-16.59l0-17.62l0.06-110.96l-0.06-32.4l0.06-17.08l-0.06-114.46
		l-92.14,92.14c-9.23,9.14-22.98,11.95-35.06,7.18c-2.95-1.21-5.72-2.83-8.21-4.83h-0.12c-7.24-5.78-11.68-14.37-12.2-23.62
		c-0.52-9.25,2.93-18.28,9.48-24.83l99.74-99.74c11.55-11.56,27.23-18.03,43.57-17.98l22.08,0h61.43l46.22,0
		C361.45,178.75,377.13,185.23,388.68,196.78L388.68,196.78z"/>
	<path class="st3" d="M364.06,76.34v10.62c-8.41-5.69-17.54-10.24-27.15-13.52v-0.12c-0.04-26.6-17.14-50.17-42.42-58.47l8.09,0
		C336.52,14.89,364.03,42.4,364.06,76.34z"/>
</g>
<path class="st4" d="M336.91,73.33v0.12c-13.77-4.75-28.21-7.26-42.78-7.42l-1.81,0c-25.47-0.33-50.45,6.96-71.74,20.94V76.34
	c0-2.05,0.12-4.1,0.3-6.09c3.16-31.43,29.6-55.36,61.18-55.39h12.43C319.76,23.15,336.87,46.73,336.91,73.33z"/>
<path class="st5" d="M364.06,86.96l0,50.81c0.01,10.88-4.31,21.33-12.01,29.02c-7.7,7.7-18.14,12.02-29.02,12.01l-23.17,0
	c-0.34,0.05-0.68,0.07-1.03,0.06l-37.23-0.06c-10.89,0.01-21.33-4.31-29.02-12.01s-12.02-18.14-12.01-29.02l0-50.81
	c17.7-11.76,38.13-18.76,59.31-20.33c4.13-0.42,8.28-0.62,12.43-0.6C317.79,65.69,342.77,72.99,364.06,86.96L364.06,86.96z"/>
<path class="st6" d="M339.87,87.02v50.81c0.03,22.26-17.75,40.47-40.01,40.97c-0.34,0.05-0.68,0.07-1.03,0.06l-37.23-0.06
	c-10.89,0.01-21.33-4.31-29.02-12.01s-12.02-18.14-12.01-29.02l0-50.81c17.7-11.76,38.13-18.76,59.31-20.33
	C301.3,68.15,321.96,75.17,339.87,87.02z"/>
<path class="st7" d="M251.3,312.01v-61.49c0-11.32,9.18-20.5,20.5-20.5h40.98c11.32,0,20.5,9.18,20.5,20.5v61.49
	c0,11.32-9.18,20.5-20.5,20.5H271.8C260.48,332.5,251.3,323.33,251.3,312.01z"/>
<g>
	<path d="M271.83,617.68c7.69,0.01,15.06-3.05,20.48-8.5c5.43,5.45,12.81,8.51,20.5,8.5h40.99c16.02-0.03,28.99-13.01,29.02-29.03
		l0-54.26l0-0.04l0-111.37l11.96,0c16.02-0.03,28.99-13.01,29.02-29.03v-81.87l36.57,36.57c14.51,14.53,37.54,16.09,53.88,3.64
		c0.32-0.19,0.63-0.4,0.92-0.64c9.14-7.3,14.73-18.15,15.37-29.83c0.65-11.68-3.72-23.08-11.99-31.34l-94.74-94.74v-57.95
		c-0.02-16.02-13-29.01-29.03-29.03l-22.21,0l0-32.45c-0.02-38.66-31.35-69.99-70.01-70.01l-20.49-0.01
		c-38.65,0.04-69.97,31.36-70.02,70.02v32.46l-22.21,0c-15.86,0.4-28.62,13.16-29.02,29.02v57.95l-94.75,94.75
		c-8.27,8.27-12.64,19.67-11.99,31.34c0.64,11.68,6.23,22.53,15.37,29.84c0.29,0.23,0.59,0.43,0.9,0.62
		c16.34,12.47,39.38,10.92,53.9-3.62l36.56-36.56l0,81.86c0.03,16.02,13.01,29,29.03,29.03l11.96,0l0,111.36l0,0.04l0,54.26
		c0.02,16.02,13,29.01,29.03,29.03L271.83,617.68z M353.8,600.61l-40.99,0c-6.6-0.01-11.95-5.36-11.96-11.96l0-11.96l64.91,0v11.96
		C365.57,595.17,360.32,600.42,353.8,600.61L353.8,600.61z M218.87,540.66c10.5-3.33,21.45-5,32.46-4.96
		c11.01-0.04,21.96,1.63,32.46,4.96l0,18.96l-64.91,0L218.87,540.66z M218.87,414.47l0-0.02l0-0.02V382l146.89,0v32.45l0,0.01
		l0,0.01l0,108.37c-21.28-5.59-43.63-5.59-64.91,0l0-87.88c0-4.71-3.82-8.53-8.53-8.53s-8.53,3.82-8.53,8.53l0,87.88
		c-10.59-2.8-21.5-4.21-32.45-4.19c-10.96-0.02-21.87,1.39-32.46,4.19L218.87,414.47z M213.6,242.62c-3.19-1.32-6.86-0.59-9.3,1.85
		l-64.99,64.99l-30.26-37.83l68.79-68.79c9.93-9.98,23.44-15.58,37.52-15.54l46.21,0l61.48,0l46.21,0
		c14.08-0.04,27.59,5.55,37.52,15.54l68.79,68.79l-30.26,37.82l-64.99-64.99c-2.44-2.44-6.11-3.17-9.3-1.85
		c-3.19,1.32-5.27,4.43-5.27,7.88l0,114.43l-146.89,0V250.5C218.88,247.05,216.8,243.94,213.6,242.62z M238.62,160.73
		c-6.11-6.07-9.53-14.34-9.5-22.95l0-46.1c19.09-11.42,40.96-17.34,63.2-17.1c22.24-0.24,44.11,5.68,63.19,17.1l0,46.09
		c-0.41,17.75-14.7,32.05-32.46,32.46h-61.48C252.96,170.26,244.7,166.84,238.62,160.73z M365.76,559.62l-64.91,0v-18.96
		c21.13-6.61,43.78-6.61,64.91,0L365.76,559.62z M406.75,393.96c-0.19,6.53-5.43,11.77-11.96,11.96h-11.96l0-134.82l23.92,23.92
		L406.75,393.96z M513.5,320.93c-0.35,6.52-3.36,12.6-8.32,16.84c-0.26,0.17-0.52,0.35-0.76,0.55c-9.54,7.67-23.32,6.93-31.97-1.73
		l-14.99-14.99l30.26-37.82l18.78,18.78C511.33,307.4,513.88,314.08,513.5,320.93L513.5,320.93z M394.79,125.82
		c6.6,0.01,11.95,5.36,11.96,11.96l0,43.35c-11.2-7.13-24.2-10.91-37.48-10.89l-9.09,0c7.96-8.94,12.37-20.49,12.4-32.46l0-11.96
		L394.79,125.82z M282.07,23.35l20.49,0.01c27.58,0.01,50.53,21.19,52.74,48.68c-39.68-19.31-86.02-19.35-125.74-0.12
		C231.63,44.47,254.55,23.27,282.07,23.35L282.07,23.35z M177.89,137.78c0.19-6.53,5.43-11.77,11.96-11.96l22.21,0v11.96
		c0.03,11.97,4.44,23.51,12.39,32.45l-9.08,0c-13.28-0.01-26.28,3.77-37.48,10.9L177.89,137.78z M80.22,338.32
		c-0.24-0.19-0.5-0.37-0.76-0.54c-4.99-4.22-8-10.32-8.33-16.85c-0.38-6.85,2.17-13.54,7.02-18.39l18.77-18.77l30.26,37.83
		l-14.99,14.99C103.54,345.24,89.75,345.99,80.22,338.32L80.22,338.32z M189.85,405.91c-6.59-0.03-11.93-5.37-11.96-11.96
		l-0.01-98.93l23.92-23.92v134.82L189.85,405.91z M218.87,588.65l0-11.96h64.91v11.96c-0.19,6.53-5.43,11.77-11.96,11.96h-40.99
		C224.23,600.6,218.89,595.25,218.87,588.65z"/>
	<path d="M271.82,341.01l40.99,0c16.02-0.02,29-13.01,29.02-29.03V250.5c-0.02-16.02-13-29.01-29.03-29.03l-40.99,0
		c-15.88,0.37-28.66,13.15-29.03,29.03v61.48C242.82,328.01,255.8,340.99,271.82,341.01L271.82,341.01z M259.86,311.98V250.5
		c0.15-6.54,5.42-11.81,11.96-11.96h40.99c6.6,0.01,11.95,5.36,11.96,11.96v61.48c-0.01,6.6-5.36,11.95-11.96,11.96l-40.99,0
		C265.22,323.93,259.87,318.58,259.86,311.98z"/>
	<path d="M324.72,115.45c0.55-0.19,1.09-0.36,1.63-0.54l1.45-0.73c0.47-0.33,0.91-0.69,1.33-1.09c0.37-0.39,0.71-0.82,1.02-1.26
		c0.3-0.55,0.54-1.02,0.79-1.51c0.18-0.54,0.36-1.09,0.48-1.57c0.13-0.55,0.16-1.12,0.12-1.69c0.05-0.57,0.01-1.14-0.11-1.69
		c-0.11-0.54-0.27-1.06-0.48-1.57c-0.18-0.54-0.44-1.05-0.79-1.51c-0.31-0.45-0.65-0.87-1.02-1.27c-0.42-0.39-0.86-0.76-1.33-1.08
		c-0.46-0.33-0.97-0.6-1.51-0.79c-0.51-0.19-1.04-0.35-1.57-0.48c-0.56-0.07-1.13-0.11-1.69-0.11c-4.63,0.16-8.34,3.88-8.5,8.5
		c0.02,4.69,3.82,8.48,8.51,8.51C323.59,115.56,324.16,115.52,324.72,115.45L324.72,115.45z"/>
	<path d="M288.1,113.08c2.44-2.44,3.17-6.11,1.85-9.3c-1.32-3.19-4.43-5.27-7.88-5.27l-20.49,0c-4.71,0-8.53,3.82-8.53,8.53
		c0,4.71,3.82,8.53,8.53,8.53l20.49,0C284.33,115.58,286.51,114.68,288.1,113.08L288.1,113.08z"/>
</g>
</svg>
