<?xml version="1.0" encoding="utf-8"?>
<!-- Generator: Adobe Illustrator 24.0.1, SVG Export Plug-In . SVG Version: 6.00 Build 0)  -->
<svg version="1.1" id="Layer_1" xmlns="http://www.w3.org/2000/svg" xmlns:xlink="http://www.w3.org/1999/xlink" x="0px" y="0px"
	 viewBox="0 0 512 512" style="enable-background:new 0 0 512 512;" xml:space="preserve">
<path d="M224,426.7c-5.9,0-10.7,4.8-10.7,10.7v21.3c0,5.9,4.8,10.7,10.7,10.7s10.7-4.8,10.7-10.7v-21.3
	C234.7,431.4,229.9,426.7,224,426.7z M181.3,426.7c-5.9,0-10.7,4.8-10.7,10.7v21.3c0,5.9,4.8,10.7,10.7,10.7s10.7-4.8,10.7-10.7
	v-21.3C192,431.4,187.2,426.7,181.3,426.7z M352,320h-13.6c51.8-28.7,87.1-83.5,88.1-146.6c0.3-0.9,0.6-1.8,0.6-2.8
	c0-1.1-0.1-2.1-0.4-3.1C425,74.9,349.1,0,256,0C161.9,0,85.3,76.6,85.3,170.7c0,64.2,35.7,120.2,88.2,149.3H160
	C71.8,320,0,391.8,0,480v21.3c0,5.9,4.8,10.7,10.7,10.7h490.7c5.9,0,10.7-4.8,10.7-10.7V480C512,391.8,440.2,320,352,320z
	 M106.7,170.7c0-46.3,68.4-85.3,149.3-85.3s149.3,39.1,149.3,85.3S336.9,256,256,256S106.7,216.9,106.7,170.7z M362.7,490.7H128v-96
	c0-5.9,4.8-10.7,10.7-10.7H352c5.9,0,10.7,4.8,10.7,10.7V490.7z M309.3,426.7c-5.9,0-10.7,4.8-10.7,10.7v21.3
	c0,5.9,4.8,10.7,10.7,10.7s10.7-4.8,10.7-10.7v-21.3C320,431.4,315.2,426.7,309.3,426.7z M266.7,426.7c-5.9,0-10.7,4.8-10.7,10.7
	v21.3c0,5.9,4.8,10.7,10.7,10.7s10.7-4.8,10.7-10.7v-21.3C277.3,431.4,272.6,426.7,266.7,426.7z"/>
</svg>
