<?xml version="1.0" encoding="utf-8"?>
<!-- Generator: Adobe Illustrator 23.0.2, SVG Export Plug-In . SVG Version: 6.00 Build 0)  -->
<svg version="1.1" id="Capa_1" xmlns="http://www.w3.org/2000/svg" xmlns:xlink="http://www.w3.org/1999/xlink" x="0px" y="0px"
	 viewBox="0 0 512 583.63" style="enable-background:new 0 0 512 583.63;" xml:space="preserve">
<style type="text/css">
	.st0{fill:#1566C0;}
	.st1{fill:#CFD8DC;}
	.st2{fill:#2296F3;}
	.st3{fill:#F5F5F5;}
	.st4{fill:#FDD834;}
	.st5{fill:#FFEB3A;}
	.st6{fill:#607D8B;}
</style>
<g>
	<g transform="translate(1)">
		<path class="st0" d="M503.48,434.4v25.7c0.02,4.55-1.77,8.92-4.99,12.14s-7.59,5.02-12.14,4.99h-85.68h-17.14h-51.41l-308.46,0
			c-3.4,0.02-6.72-0.99-9.53-2.9l450.98,0c4.55,0.02,8.92-1.77,12.14-4.99s5.02-7.59,4.99-12.14V434.4L503.48,434.4z"/>
		<path class="st1" d="M503.48,401.22v33.19h-21.24v-36.08c-0.04-10.65-6.64-20.18-16.59-23.95c-12.63-7.12-24.8-15.02-36.45-23.65
			c18.61,10.14,37.88,19.01,57.69,26.55C496.84,381.04,503.44,390.57,503.48,401.22L503.48,401.22z"/>
		<path class="st2" d="M482.24,434.4v22.81c0.02,4.55-1.77,8.92-4.99,12.14s-7.59,5.02-12.14,4.99l-450.98,0
			c-4.77-3.16-7.63-8.52-7.6-14.24l0-25.7L482.24,434.4z"/>
		<path class="st3" d="M482.24,398.32v36.08l-475.72,0l0-8.57l0-24.62c0.04-10.65,6.64-20.18,16.59-23.95
			c124.66-47.55,171.91-122.79,171.91-122.79h100.65h19.31c0,0,24.14,38.38,83.27,77.6c9.41,6.27,19.67,12.55,30.95,18.64
			c11.64,8.64,23.82,16.54,36.45,23.65C475.6,378.14,482.2,387.67,482.24,398.32L482.24,398.32z"/>
		<path class="st4" d="M332.11,425.83l0,77.11c-0.02,4.72-3.84,8.55-8.57,8.57l13.4,40.19c0.86,2.62,0.41,5.48-1.2,7.71
			c-1.61,2.23-4.19,3.56-6.94,3.57l-24.86,0l-40.37-0.06h-17.14l-65.23,0.06c-2.75-0.01-5.33-1.34-6.94-3.57
			c-1.61-2.23-2.06-5.1-1.2-7.71l13.4-40.19c-4.72-0.02-8.55-3.84-8.57-8.57v-77.11c-0.04-12.77,9.32-23.63,21.96-25.46
			c1.24-0.17,2.49-0.25,3.74-0.24l42.84,0l8.57,0h8.57h42.84c6.82-0.02,13.37,2.69,18.19,7.51
			C329.43,412.47,332.13,419.01,332.11,425.83z"/>
		<path class="st5" d="M305.26,426.14v77.11c-0.1,4.69-3.88,8.46-8.57,8.57l13.4,40.19c0.76,2.27,0.53,4.76-0.65,6.85
			c-1.17,2.09-3.17,3.59-5.51,4.13l-40.37-0.06h-17.14l-65.23,0.06c-2.75-0.01-5.33-1.34-6.94-3.57c-1.61-2.23-2.06-5.1-1.2-7.71
			l13.4-40.19c-4.72-0.02-8.55-3.84-8.57-8.57v-77.11c-0.04-12.77,9.32-23.63,21.96-25.46l19.73,0.06h8.57l8.57,0h42.84
			c6.82-0.02,13.37,2.69,18.19,7.51C302.57,412.77,305.28,419.31,305.26,426.14z"/>
		<path class="st6" d="M304.24,74.54c6.77,12.42,10.45,26.29,10.74,40.43l0,285.17h-23.89h-96.06l0-285.17
			c0.22-13.23,3.48-26.24,9.53-38.01c0.36-0.84,0.78-1.63,1.21-2.41l0.06,0.06l98.35,0L304.24,74.54z"/>
		<path class="st1" d="M280.28,76.89c6.77,12.42,10.45,26.29,10.74,40.43l0.06,282.81h-96.06l0-285.17
			c0.22-13.23,3.48-26.24,9.53-38.01h75.67L280.28,76.89L280.28,76.89z"/>
		<g>
			<path class="st6" d="M304.24,74.54l-0.06,0.06h-98.35l-0.06-0.06c9.86-17.77,22.72-33.69,38.01-47.07
				c6.36-5.79,16.09-5.79,22.45,0C281.52,40.84,294.38,56.77,304.24,74.54L304.24,74.54z"/>
			<path class="st6" d="M332.11,425.83l0,77.11c-0.02,4.72-3.84,8.55-8.57,8.57h-24.14h-59.98h-52.98
				c-4.72-0.02-8.55-3.84-8.57-8.57v-77.11c-0.01-6.82,2.69-13.37,7.51-18.19c4.82-4.82,11.37-7.53,18.19-7.51h18.71h8.57l8.57,0
				h66.98c6.82-0.02,13.37,2.69,18.19,7.51C329.43,412.47,332.13,419.01,332.11,425.83z"/>
		</g>
		<path class="st1" d="M307.98,425.83v77.11c-0.02,4.72-3.84,8.55-8.57,8.57h-59.98h-52.98c-4.72-0.02-8.55-3.84-8.57-8.57v-77.11
			c-0.01-6.82,2.69-13.37,7.51-18.19s11.37-7.53,18.19-7.51h18.71h8.57l8.57,0h42.84c6.82-0.02,13.37,2.69,18.19,7.51
			C305.29,412.47,307.99,419.01,307.98,425.83z"/>
	</g>
	<g>
		<path d="M67.48,485.79l0.02,0l0.02,0h51.38l0.02,0l0.01,0l51.43,0l0,17.18c-0.19,5.25,2.26,10.25,6.52,13.33l-10.89,32.67
			c-1.74,5.21-0.86,10.95,2.35,15.41c3.21,4.46,8.38,7.1,13.87,7.1l73.8,0l73.8,0c5.5,0,10.66-2.64,13.88-7.1s4.09-10.19,2.35-15.41
			l-10.89-32.67c4.26-3.08,6.7-8.08,6.52-13.33v-17.18l51.44,0l0.01,0l0.01,0l51.4,0l0,0l0,0l42.84,0c6.81,0,13.34-2.7,18.15-7.52
			c4.81-4.81,7.52-11.34,7.52-18.15l0-58.89c-0.07-14.18-8.84-26.87-22.09-31.95c-109.25-41.64-158.1-105.59-166.42-117.43l0-83.03
			l0-0.02l0-0.01v-51.4c0-0.22-0.01-0.43-0.02-0.64c0.02-0.61,0.03-1.22,0.02-1.84c0-41.42-32.32-76.57-51.64-93.89
			c-9.62-8.63-24.19-8.6-33.79,0.05c-19.22,17.24-51.59,52.41-51.59,93.81c0,0.64,0,1.25,0.02,1.87c-0.01,0.21-0.02,0.42-0.02,0.64
			l0,51.4l0,0.01l0,0.02l0,83.04c-8.27,11.82-56.79,75.63-166.42,117.41c-13.24,5.08-22.01,17.77-22.08,31.95l0,58.89
			c0,6.81,2.7,13.34,7.52,18.15c4.81,4.81,11.34,7.52,18.15,7.52H67.48z M110.37,442.95l0,25.77l-34.35,0l0-25.77L110.37,442.95z
			 M127.44,468.73l0-25.77h42.91v25.77L127.44,468.73z M187.42,425.85c0-4.56,1.81-8.92,5.03-12.15c3.22-3.22,7.59-5.03,12.15-5.03
			h42.88v51.48h-34.31c-3.05,0-5.86,1.63-7.39,4.27c-1.52,2.64-1.52,5.89,0,8.53c1.52,2.64,4.34,4.27,7.39,4.27h34.31V503
			l-60.05-0.03L187.42,425.85z M193.6,520.07h53.86v34.34l-65.3-0.04L193.6,520.07z M329.79,554.41l-65.26,0v-34.34h53.86
			L329.79,554.41z M324.56,503l-60.03,0l0-25.78l34.31,0c3.05,0,5.86-1.63,7.39-4.27c1.52-2.64,1.52-5.89,0-8.53
			c-1.52-2.64-4.34-4.27-7.39-4.27h-34.31l0-51.48h42.88c4.56,0,8.92,1.81,12.15,5.03c3.22,3.22,5.03,7.59,5.03,12.15L324.56,503z
			 M341.65,442.95h42.91l0,25.77h-42.91L341.65,442.95z M401.63,468.73l0-25.77h34.35v25.77H401.63z M495.95,460.13
			c-0.11,4.7-3.9,8.49-8.6,8.6h-34.31v-25.77h42.91L495.95,460.13z M484.85,385.23c6.64,2.54,11.05,8.89,11.1,16l0,24.65l-51.43,0
			l-0.02,0l-0.01,0H341.65v-0.04c0.14-12.24-6.44-23.57-17.14-29.52l0-117C347.58,305.64,397.5,351.94,484.85,385.23L484.85,385.23z
			 M250.42,33.84c3.13-2.89,7.95-2.91,11.11-0.05c10.79,9.57,20.41,20.4,28.66,32.24l-68.37,0
			C230.04,54.21,239.65,43.4,250.42,33.84L250.42,33.84z M204.55,118.59c0.09-0.67,0.11-1.36,0.04-2.03
			c-0.04-0.55-0.06-1.09-0.04-1.64c0.19-11.03,2.76-21.88,7.53-31.83l87.82,0c4.78,9.95,7.35,20.82,7.54,31.86
			c0.01,0.54,0,1.07-0.04,1.61c-0.06,0.66-0.05,1.32,0.04,1.98l0,41.75h-17.17c-3.05,0-5.86,1.63-7.39,4.27
			c-1.52,2.64-1.52,5.89,0,8.53s4.34,4.27,7.39,4.27h17.17l0,145.71h-17.17c-4.71,0-8.53,3.82-8.53,8.53s3.82,8.53,8.53,8.53h17.17
			l0,51.48h-0.04l-51.41,0l-51.41,0h-0.04v-51.48h17.17c3.05,0,5.86-1.63,7.39-4.27c1.52-2.64,1.52-5.89,0-8.53
			c-1.52-2.64-4.34-4.27-7.39-4.27h-17.17l0-145.71l17.17,0c3.05,0,5.86-1.63,7.39-4.27c1.52-2.64,1.52-5.89,0-8.53
			c-1.52-2.64-4.34-4.27-7.39-4.27h-17.17V118.59z M16.05,401.23c0.05-7.11,4.46-13.46,11.1-16
			c87.34-33.29,137.27-79.6,160.34-105.9v117c-10.7,5.95-17.28,17.28-17.14,29.52v0.04H67.51l-0.01,0l-0.02,0H16.05L16.05,401.23z
			 M16.05,460.12l0-17.17h42.91l0,25.77l-34.31,0c-2.28,0-4.47-0.9-6.08-2.52C16.95,464.59,16.05,462.4,16.05,460.12L16.05,460.12z"
			/>
		<path d="M133.51,406.18c1.6-1.6,2.5-3.77,2.5-6.03l0-25.71c0-4.71-3.82-8.53-8.53-8.53s-8.53,3.82-8.53,8.53l0,25.71
			c0,3.45,2.08,6.56,5.27,7.88C127.4,409.35,131.07,408.62,133.51,406.18L133.51,406.18z"/>
		<path d="M376,374.44l0,25.71c0,4.71,3.82,8.53,8.53,8.53s8.53-3.82,8.53-8.53l0-25.71c0-4.71-3.82-8.53-8.53-8.53
			C379.82,365.91,376,369.73,376,374.44L376,374.44z"/>
		<path d="M238.83,125.98c0.02-3.51,6.69-8.6,17.17-8.61c10.48,0,17.17,5.1,17.17,8.61c0,3.05,1.63,5.86,4.27,7.39
			c2.64,1.52,5.89,1.52,8.53,0c2.64-1.52,4.27-4.34,4.27-7.39c0-14.39-15.04-25.67-34.24-25.67c-19.19,0.01-34.24,11.28-34.24,25.67
			c0,4.71,3.82,8.53,8.53,8.53C235.01,134.51,238.83,130.69,238.83,125.98L238.83,125.98z"/>
	</g>
</g>
</svg>
