<?xml version="1.0" encoding="utf-8"?>
<!-- Generator: Adobe Illustrator 24.0.1, SVG Export Plug-In . SVG Version: 6.00 Build 0)  -->
<svg version="1.1" id="Layer_1" xmlns="http://www.w3.org/2000/svg" xmlns:xlink="http://www.w3.org/1999/xlink" x="0px" y="0px"
	 viewBox="0 0 512 512" style="enable-background:new 0 0 512 512;" xml:space="preserve">
<style type="text/css">
	.st0{fill:#040000;}
</style>
<path class="st0" d="M157.7,355.7c-0.9-4.1-4.2-7.3-8.4-8.1c-4.1-0.9-8.4,0.9-10.8,4.4l-40.6,58c-1.3,1.8-1.9,3.9-1.9,6.1v85.3
	c0,4.3,2.6,8.2,6.6,9.9c1.3,0.6,2.7,0.8,4.1,0.8c2.8,0,5.5-1.1,7.6-3.1l62.3-62.3c2.8-2.8,3.8-7,2.6-10.8
	C174.7,421.8,166,392.9,157.7,355.7z M414.1,409.9l-40.6-58c-2.4-3.5-6.6-5.2-10.8-4.4c-4.1,0.8-7.4,4-8.4,8.1
	c-8.3,37.2-17,66.2-21.5,80.1c-1.2,3.8-0.2,8,2.6,10.8l62.3,62.3c2,2,4.8,3.1,7.6,3.1c1.4,0,2.8-0.3,4.1-0.8c4-1.6,6.6-5.5,6.6-9.9
	V416C416,413.8,415.4,411.7,414.1,409.9z M309.9,437.4c6.9-20.6,42.1-131,42.1-234.7C352,87.5,266.9,6.3,263.3,2.9
	c-4.1-3.9-10.5-3.9-14.6,0C245.1,6.3,160,87.5,160,202.7c0,103.7,35.2,214,42.1,234.7L181.9,498c-1.1,3.2-0.5,6.8,1.5,9.6
	c2,2.8,5.2,4.4,8.6,4.4h128c3.4,0,6.7-1.6,8.6-4.4c2-2.8,2.6-6.4,1.5-9.6L309.9,437.4z M256,213.4c-17.6,0-32-14.4-32-32
	s14.4-32,32-32s32,14.4,32,32S273.7,213.4,256,213.4z"/>
</svg>
