<?xml version="1.0" encoding="utf-8"?>
<!-- Generator: Adobe Illustrator 24.0.1, SVG Export Plug-In . SVG Version: 6.00 Build 0)  -->
<svg version="1.1" id="Layer_1" xmlns="http://www.w3.org/2000/svg" xmlns:xlink="http://www.w3.org/1999/xlink" x="0px" y="0px"
	 viewBox="0 0 512 512" style="enable-background:new 0 0 512 512;" xml:space="preserve">
<path d="M448,107.7V96c0-5.9-4.8-10.7-10.7-10.7h-64c-5.9,0-10.7,4.8-10.7,10.7v10.7H149.3V96c0-5.9-4.8-10.7-10.7-10.7h-64
	C68.8,85.3,64,90.1,64,96v11.8C27.9,113,0,143.8,0,181.3v149.3c0,37.5,27.9,68.4,64,73.6V416c0,5.9,4.8,10.7,10.7,10.7h64
	c5.9,0,10.7-4.8,10.7-10.7v-10.7h213.3V416c0,5.9,4.8,10.7,10.7,10.7h64c5.9,0,10.7-4.8,10.7-10.7v-11.8c36.1-5.2,64-36.1,64-73.6
	V181.3C512,143.8,484.1,113,448,107.7z M128,405.3H85.3V106.7H128V405.3z M341.3,288c0,29.4-23.9,53.3-53.3,53.3h-64
	c-29.4,0-53.3-23.9-53.3-53.3v-64c0-29.4,23.9-53.3,53.3-53.3h64c29.4,0,53.3,23.9,53.3,53.3L341.3,288L341.3,288z M426.7,405.3H384
	V106.7h42.7L426.7,405.3L426.7,405.3z M302.3,276.9h-95.7c-2.5,0-4.5-2-4.5-4.5V247c0-2.5,2-4.5,4.5-4.5h95.7c2.5,0,4.5,2,4.5,4.5
	v25.4C306.8,274.9,304.8,276.9,302.3,276.9z M237.4,307.5v-95.6c0-2.5,2-4.5,4.5-4.5h25.3c2.5,0,4.5,2,4.5,4.5v95.6
	c0,2.5-2,4.5-4.5,4.5h-25.3C239.4,312,237.4,310,237.4,307.5z"/>
</svg>
