<svg  viewBox="0 0 512.32711 512" xmlns="http://www.w3.org/2000/svg"><path d="m503.804688 256.164062c0 136.671876-110.792969 247.464844-247.46875 247.464844-7.167969 0-14.335938-.339844-21.332032-1.023437-127.90625-11.019531-226.121094-118.0625-226.121094-246.441407 0-128.378906 98.214844-235.421874 226.121094-246.441406 6.996094-.683594 14.164063-1.027344 21.332032-1.027344 136.675781 0 247.46875 110.796876 247.46875 247.46875zm0 0" fill="#ffb301"/><path d="m461.136719 256.164062c0-136.105468-101.242188-246.441406-226.132813-246.441406s-226.132812 110.335938-226.132812 246.441406c0 136.105469 101.242187 246.441407 226.132812 246.441407s226.132813-110.335938 226.132813-246.441407zm0 0" fill="#ffeb3a"/><g fill="#ffb301"><path d="m384.167969 44.109375v.085937c-2.664063 39.148438-35.976563 69.082032-75.183594 67.558594-39.210937-1.527344-70.097656-33.953125-69.714844-73.191406-.035156-10.207031 2.121094-20.304688 6.316407-29.609375 3.582031-.171875 7.167968-.257813 10.75-.257813 45.042968-.058593 89.242187 12.1875 127.832031 35.414063zm0 0"/><path d="m465.574219 388.429688c-26.378907 41.621093-64.550781 74.445312-109.652344 94.292968-22.355469-30.546875-17.460937-73.148437 11.242187-97.832031 28.699219-24.679687 71.554688-23.140625 98.410157 3.539063zm0 0"/><path d="m188.070312 145.230469c0 28.277343-22.921874 51.199219-51.199218 51.199219s-51.199219-22.921876-51.199219-51.199219c0-28.277344 22.921875-51.199219 51.199219-51.199219s51.199218 22.921875 51.199218 51.199219zm0 0"/><path d="m256.335938 264.695312c0 18.851563-15.28125 34.136719-34.132813 34.136719s-34.132813-15.285156-34.132813-34.136719c0-18.851562 15.28125-34.132812 34.132813-34.132812s34.132813 15.28125 34.132813 34.132812zm0 0"/><path d="m136.871094 332.964844c0 18.851562-15.28125 34.132812-34.132813 34.132812-18.851562 0-34.132812-15.28125-34.132812-34.132812 0-18.851563 15.28125-34.132813 34.132812-34.132813 18.851563 0 34.132813 15.28125 34.132813 34.132813zm0 0"/><path d="m435.539062 239.097656c0 28.277344-22.925781 51.199219-51.203124 51.199219-28.273438 0-51.199219-22.921875-51.199219-51.199219s22.925781-51.199218 51.199219-51.199218c28.277343 0 51.203124 22.921874 51.203124 51.199218zm0 0"/><path d="m264.871094 418.296875c0 18.851563-15.28125 34.132813-34.132813 34.132813-18.851562 0-34.132812-15.28125-34.132812-34.132813s15.28125-34.132813 34.132812-34.132813c18.851563 0 34.132813 15.28125 34.132813 34.132813zm0 0"/></g><path d="m389.253906 37.453125c-.605468-.476563-1.269531-.867187-1.980468-1.160156-39.566407-23.683594-84.824219-36.171875-130.9375-36.128907-3.503907 0-6.976563.128907-10.453126.265626h-.210937c-102.792969 4.152343-193.117187 69.4375-229.304687 165.742187-36.1875 96.300781-11.207032 204.910156 63.410156 275.734375 74.621094 70.820312 184.386718 90.089844 278.671875 48.925781.21875-.070312.433593-.207031.65625-.300781 46.078125-20.328125 85.183593-53.722656 112.476562-96.050781.84375-.851563 1.492188-1.871094 1.910157-2.996094 36.234374-57.996094 47.722656-128.097656 31.890624-194.625-15.832031-66.527344-57.65625-123.941406-116.128906-159.40625zm-14.304687 11.445313c-5.417969 32.859374-35.132813 56.070312-68.328125 53.371093-33.195313-2.695312-58.773438-30.402343-58.816406-63.707031-.007813-7.222656 1.230468-14.398438 3.652343-21.203125 1.628907 0 3.242188-.128906 4.878907-.128906 41.632812-.03125 82.539062 10.890625 118.613281 31.667969zm-357.542969 207.265624c.15625-123 93.550781-225.839843 215.96875-237.808593-6.355469 24.269531-1.078125 50.113281 14.28125 69.949219 15.359375 19.832031 39.0625 31.40625 64.148438 31.324218 37.023437-.203125 69.257812-25.324218 78.507812-61.175781 103.675781 70.101563 135.539062 208.414063 72.984375 316.808594-30.421875-23.261719-72.988281-22.023438-102.007813 2.96875-29.019531 24.992187-36.554687 66.902343-18.054687 100.441406-73.519531 28.777344-156.507813 19.355469-221.703125-25.167969-65.199219-44.523437-104.175781-118.390625-104.125-197.339844zm341.714844 215.664063c-5.8125-9.738281-8.890625-20.859375-8.917969-32.199219.015625-24.621094 14.15625-47.054687 36.367187-57.6875 22.210938-10.628906 48.550782-7.578125 67.742188 7.855469-23.902344 35.292969-56.753906 63.601563-95.191406 82.03125zm0 0"/><path d="m136.871094 85.496094c-32.988282 0-59.734375 26.746094-59.734375 59.734375s26.746093 59.734375 59.734375 59.734375c32.988281 0 59.734375-26.746094 59.734375-59.734375-.039063-32.972657-26.761719-59.695313-59.734375-59.734375zm0 102.402344c-23.5625 0-42.667969-19.105469-42.667969-42.667969s19.105469-42.667969 42.667969-42.667969 42.667968 19.105469 42.667968 42.667969c-.03125 23.550781-19.117187 42.636719-42.667968 42.667969zm0 0"/><path d="m222.203125 307.363281c23.566406 0 42.667969-19.101562 42.667969-42.667969 0-23.5625-19.101563-42.664062-42.667969-42.664062-23.5625 0-42.664063 19.101562-42.664063 42.664062.027344 23.554688 19.113282 42.640626 42.664063 42.667969zm0-68.265625c14.140625 0 25.601563 11.460938 25.601563 25.597656 0 14.140626-11.460938 25.601563-25.601563 25.601563-14.136719 0-25.597656-11.460937-25.597656-25.601563 0-14.136718 11.460937-25.597656 25.597656-25.597656zm0 0"/><path d="m102.738281 290.296875c-23.566406 0-42.667969 19.101563-42.667969 42.667969 0 23.5625 19.101563 42.664062 42.667969 42.664062 23.5625 0 42.667969-19.101562 42.667969-42.664062-.03125-23.554688-19.117188-42.640625-42.667969-42.667969zm0 68.265625c-14.140625 0-25.601562-11.460938-25.601562-25.597656 0-14.140625 11.460937-25.601563 25.601562-25.601563 14.136719 0 25.597657 11.460938 25.597657 25.601563 0 14.136718-11.460938 25.597656-25.597657 25.597656zm0 0"/><path d="m384.335938 298.832031c32.992187 0 59.734374-26.746093 59.734374-59.734375 0-32.992187-26.742187-59.734375-59.734374-59.734375-32.988282 0-59.730469 26.742188-59.730469 59.734375.035156 32.972656 26.757812 59.695313 59.730469 59.734375zm0-102.402343c23.566406 0 42.667968 19.101562 42.667968 42.667968 0 23.5625-19.101562 42.667969-42.667968 42.667969-23.5625 0-42.664063-19.105469-42.664063-42.667969.027344-23.554687 19.113281-42.640625 42.664063-42.667968zm0 0"/><path d="m230.738281 375.628906c-23.566406 0-42.667969 19.105469-42.667969 42.667969s19.101563 42.667969 42.667969 42.667969c23.5625 0 42.667969-19.105469 42.667969-42.667969-.03125-23.550781-19.117188-42.636719-42.667969-42.667969zm0 68.269532c-14.140625 0-25.601562-11.464844-25.601562-25.601563s11.460937-25.601563 25.601562-25.601563c14.136719 0 25.597657 11.464844 25.597657 25.601563s-11.460938 25.601563-25.597657 25.601563zm0 0"/></svg>