<?xml version="1.0" encoding="utf-8"?>
<!-- Generator: Adobe Illustrator 23.0.2, SVG Export Plug-In . SVG Version: 6.00 Build 0)  -->
<svg version="1.1" id="Capa_1" xmlns="http://www.w3.org/2000/svg" xmlns:xlink="http://www.w3.org/1999/xlink" x="0px" y="0px"
	 viewBox="0 0 511.99 511.99" style="enable-background:new 0 0 511.99 511.99;" xml:space="preserve">
<style type="text/css">
	.st0{fill:#CFD8DC;}
	.st1{fill:#F5F5F5;}
	.st2{fill:#5D120F;}
	.st3{fill:#A0182C;}
	.st4{fill:#FDD834;}
	.st5{fill:#FFEB3A;}
	.st6{fill:#607D8B;}
</style>
<path class="st0" d="M406.64,456.76l-23.47,23.47l-15.02-15.02l25.51-25.51c7.5-7.56,9.57-18.96,5.2-28.67
	c-3.9-13.96-6.92-28.16-9.05-42.5c5.99,20.33,13.35,40.23,22.02,59.56C416.22,437.8,414.15,449.2,406.64,456.76z"/>
<path class="st1" d="M393.67,439.69l-25.52,25.51L31.78,128.82l6.06-6.06l17.41-17.41c7.56-7.5,18.96-9.57,28.67-5.21
	c121.77,54.53,208.38,34.73,208.38,34.73l71.17,71.17l13.65,13.65c0,0-10.07,44.2,4.01,113.75c2.22,11.09,5.04,22.78,8.7,35.07
	c2.13,14.34,5.15,28.53,9.05,42.5C403.25,420.73,401.18,432.14,393.67,439.69z"/>
<path class="st0" d="M480.17,201.04L329.13,352.08c-3.2,3.23-7.57,5.06-12.12,5.06s-8.92-1.82-12.12-5.06l-17.83-17.83
	c-0.19-0.12-0.36-0.26-0.51-0.43l-30.21-30.29l-84.57-84.57l-11.86-11.86c-3.24-3.2-5.06-7.57-5.06-12.12s1.82-8.91,5.06-12.12
	L310.96,31.82c6.67-6.66,17.48-6.66,24.15,0l11.86,11.86l84.65,84.65l48.55,48.55C486.83,183.56,486.83,194.36,480.17,201.04z"/>
<path class="st1" d="M461.82,182.69L310.78,333.82c-6.52,6.48-16.98,6.66-23.72,0.43c-0.19-0.12-0.36-0.26-0.51-0.43l-30.21-30.29
	l-84.57-84.57l-11.86-11.86c-3.24-3.2-5.06-7.57-5.06-12.12s1.82-8.91,5.06-12.12L310.96,31.82c6.67-6.66,17.48-6.66,24.15,0
	l11.86,11.86l84.65,84.65l30.21,30.21C468.48,165.21,468.48,176.02,461.82,182.69z"/>
<path class="st2" d="M383.18,480.23L365,498.4c-3.2,3.24-7.57,5.06-12.12,5.06s-8.92-1.82-12.12-5.06l-60.59-60.59l-12.12-12.12
	l-36.35-36.35L13.6,171.23c-2.42-2.39-4.06-5.45-4.69-8.79L327.8,481.33c3.2,3.24,7.57,5.06,12.12,5.06s8.92-1.82,12.12-5.06
	l16.13-16.13L383.18,480.23z"/>
<path class="st3" d="M368.16,465.21l-16.13,16.13c-3.2,3.24-7.57,5.06-12.12,5.06s-8.92-1.82-12.12-5.06L8.91,162.44
	c-1.14-5.61,0.63-11.42,4.69-15.45l18.17-18.18L368.16,465.21z"/>
<path class="st4" d="M268.06,352.99l-54.53,54.53c-3.35,3.33-8.76,3.33-12.12,0l-18.94,37.89c-1.24,2.45-3.59,4.17-6.3,4.6
	c-2.72,0.44-5.48-0.45-7.43-2.39l-17.58-17.58l-28.5-28.59l-12.12-12.12l-46.17-46.08c-1.94-1.95-2.83-4.72-2.39-7.43
	c0.44-2.72,2.15-5.06,4.6-6.3l37.89-18.94c-3.33-3.35-3.33-8.76,0-12.12l54.53-54.53c9-9.06,23.3-10.12,33.54-2.48
	c1,0.76,1.94,1.59,2.82,2.48l30.29,30.29l6.06,6.06l6.06,6.06l30.29,30.29c4.83,4.81,7.55,11.35,7.55,18.18
	S272.9,348.18,268.06,352.99z"/>
<path class="st5" d="M248.86,334.22l-54.53,54.53c-3.39,3.24-8.73,3.24-12.12,0l-18.94,37.89c-1.07,2.14-2.99,3.74-5.3,4.39
	c-2.31,0.65-4.78,0.3-6.81-0.98l-28.5-28.59l-12.12-12.12l-46.17-46.08c-1.94-1.95-2.83-4.72-2.39-7.43c0.44-2.72,2.15-5.06,4.6-6.3
	l37.89-18.94c-3.33-3.35-3.33-8.76,0-12.12l54.53-54.53c9-9.06,23.3-10.12,33.54-2.48l13.91,13.99l6.06,6.06l6.06,6.06l30.29,30.29
	c4.83,4.81,7.55,11.35,7.55,18.18C256.42,322.87,253.7,329.41,248.86,334.22z"/>
<path class="st6" d="M496.76,84.88c-3.99,13.57-11.2,25.98-20.99,36.18L274.12,322.7l-16.9-16.9l-67.93-67.93L390.94,36.24
	c9.51-9.2,21.02-16.09,33.62-20.14c0.85-0.34,1.71-0.6,2.56-0.85v0.09l69.55,69.55H496.76z"/>
<path class="st0" d="M478.15,69.6c-3.99,13.57-11.2,25.98-20.99,36.18L257.23,305.8l-67.93-67.93L390.94,36.24
	c9.51-9.2,21.02-16.09,33.62-20.14l53.5,53.5H478.15z"/>
<g>
	<path class="st6" d="M496.76,84.88h-0.08l-69.55-69.55v-0.09c19.53-5.59,39.89-7.76,60.16-6.4c8.59,0.4,15.47,7.28,15.87,15.87
		C504.52,44.99,502.35,65.34,496.76,84.88L496.76,84.88z"/>
	<path class="st6" d="M268.06,352.99l-54.53,54.53c-3.35,3.33-8.76,3.33-12.12,0l-17.07-17.07l-42.41-42.41l-37.46-37.46
		c-3.33-3.35-3.33-8.76,0-12.12l54.53-54.53c4.81-4.83,11.35-7.55,18.18-7.55c6.82,0,13.36,2.72,18.18,7.55l13.23,13.23l6.06,6.06
		l6.06,6.06l47.36,47.36c4.83,4.81,7.55,11.35,7.55,18.18C275.62,341.64,272.9,348.18,268.06,352.99L268.06,352.99z"/>
</g>
<path class="st0" d="M251,335.93l-54.53,54.53c-3.35,3.33-8.76,3.33-12.12,0l-42.41-42.41l-37.46-37.46
	c-3.33-3.35-3.33-8.76,0-12.12l54.53-54.53c4.81-4.83,11.35-7.55,18.18-7.55c6.82,0,13.36,2.72,18.18,7.55l13.23,13.23l6.06,6.06
	l6.06,6.06L251,299.58c4.83,4.81,7.55,11.35,7.55,18.18C258.55,324.57,255.83,331.11,251,335.93z"/>
<path class="st1" d="M413.7,134.56l-18.18,18.18l-12.03,12.03l-48.3,48.3v0.09l-36.35,36.27l-48.3,48.3l-36.27-36.27l48.3-48.3
	l36.35-36.27v-0.09l48.3-48.3l12.03-12.03h0.08l18.09-18.18c3.35-3.33,8.76-3.33,12.12,0l24.15,24.15
	C417.02,125.8,417.02,131.21,413.7,134.56z"/>
<g>
	<path d="M110.22,280.92l-12.16,12.16c-3.67,3.69-5.45,8.86-4.83,14.03l-30.85,15.47c-4.91,2.46-8.35,7.13-9.23,12.55
		c-0.88,5.42,0.89,10.94,4.77,14.83l52.05,52.05l52.05,52.05c3.89,3.88,9.41,5.65,14.83,4.77c5.42-0.88,10.09-4.32,12.55-9.23
		l15.47-30.85c0.64,0.1,1.28,0.16,1.92,0.18c4.54,0.01,8.9-1.8,12.11-5.01l12.16-12.16l102.74,102.75c4.79,4.81,11.31,7.5,18.1,7.48
		h0.05c6.82,0.01,13.35-2.7,18.16-7.54l41.7-41.7c10.02-10.06,12.81-25.26,7.02-38.22c-16.75-36.93-28.17-76.05-33.9-116.19
		l101.28-101.28c9.99-10.01,9.99-26.23,0-36.24l-24.18-24.18l17.85-17.85c0.16-0.16,0.31-0.32,0.45-0.48
		c0.42-0.4,0.85-0.81,1.31-1.28c29.33-29.33,31.42-77.01,30.05-102.89c-0.66-12.91-10.99-23.21-23.9-23.84
		c-25.82-1.34-73.5,0.73-102.9,30.13c-0.41,0.42-0.81,0.82-1.19,1.24c-0.17,0.14-0.33,0.29-0.49,0.45l-17.85,17.85l-24.18-24.18
		c-10.02-9.99-26.23-9.99-36.24,0L203.65,127.06c-40.13-5.73-79.24-17.14-116.15-33.88c-12.97-5.82-28.18-3.03-38.26,7l-41.7,41.7
		c-10.03,10.01-10.05,26.26-0.06,36.3L110.22,280.92z M98.28,208.27l-18.28,18.28L55.8,202.36l18.28-18.29L98.28,208.27z
		 M92.06,238.62l18.28-18.29l30.24,30.24l-18.29,18.29L92.06,238.62z M164.75,250.53c3.24-3.24,7.63-5.06,12.2-5.05
		c4.52-0.01,8.86,1.78,12.06,4.98l30.23,30.23l-36.48,36.48l-24.18-24.18c-3.33-3.32-8.73-3.32-12.06,0.01s-3.33,8.72-0.01,12.06
		l24.18,24.18l-18.27,18.27l-42.31-42.31L164.75,250.53z M389.53,146.66l-24.19-24.19l18.15-18.15l24.17,24.2L389.53,146.66z
		 M353.27,134.54l24.19,24.19L341.18,195l-24.19-24.19L353.27,134.54z M304.92,182.88l24.19,24.19l-36.28,36.28l-24.19-24.19
		L304.92,182.88z M256.58,231.23l24.19,24.19l-30.24,30.24l-24.19-24.19L256.58,231.23z M102.4,321.61l37.96,37.96l-24.34,24.33
		l-45.97-46.06L102.4,321.61z M174.09,441.99l-46.01-46.02l24.34-24.34l37.95,37.95L174.09,441.99z M206.8,401.88l-42.31-42.31
		l18.27-18.27l24.18,24.18c2.15,2.16,5.3,3.01,8.25,2.22s5.25-3.09,6.04-6.04s-0.06-6.09-2.22-8.25l-24.18-24.18l36.47-36.48
		l30.23,30.23c6.67,6.73,6.63,17.58-0.08,24.27L206.8,401.88z M261.42,371.41l30.24,30.23l-18.29,18.29l-30.24-30.23L261.42,371.41z
		 M285.44,432l18.29-18.29l24.2,24.2l-18.29,18.28L285.44,432z M358.05,492.39c-1.62,1.63-3.82,2.54-6.12,2.54h-0.02
		c-2.26,0.01-4.43-0.88-6.03-2.48l-24.18-24.18l18.29-18.28l30.24,30.24L358.05,492.39z M403.27,431.54
		c2.9,6.5,1.5,14.11-3.52,19.15l-17.46,17.46l-108.8-108.8l0.04-0.04c4.71-4.72,7.94-10.71,9.28-17.24l16.08,16.08
		c10.01,9.99,26.23,9.99,36.24,0l34.81-34.81C376.46,360.66,387.66,397.01,403.27,431.54L403.27,431.54z M474.14,182.89
		c3.34,3.35,3.34,8.76,0,12.11L323.06,346.08c-3.35,3.33-8.76,3.33-12.1,0l-24.18-24.18l30.24-30.24l12.1,12.1
		c3.33,3.33,8.73,3.33,12.07,0s3.33-8.73,0-12.07l-12.1-12.1l36.28-36.28l12.1,12.1c3.33,3.33,8.73,3.33,12.07,0
		c3.33-3.33,3.33-8.74,0-12.07l-12.1-12.1l36.28-36.28l12.1,12.1c3.33,3.32,8.73,3.32,12.05-0.01s3.33-8.72,0.01-12.05l-12.1-12.1
		l24.19-24.19L474.14,182.89z M486.82,17.34c4.23,0.16,7.63,3.54,7.83,7.77c0.83,14.41-0.05,28.88-2.63,43.08l-48.22-48.22
		C457.99,17.39,472.43,16.51,486.82,17.34L486.82,17.34z M394.43,45.02c0.53-0.4,1.02-0.87,1.45-1.38c0.36-0.43,0.72-0.78,1.15-1.22
		c7.94-7.68,17.45-13.55,27.86-17.23l61.91,61.91c-3.69,10.43-9.58,19.95-17.27,27.9c-0.4,0.39-0.75,0.75-1.18,1.11
		c-0.5,0.41-0.95,0.89-1.35,1.4l-193.4,193.4l-12.11-12.11l158.23-158.23c6.66-6.68,6.66-17.48,0-24.15l-24.17-24.17
		c-6.67-6.66-17.48-6.66-24.15,0L213.18,250.49l-12.11-12.11L394.43,45.02z M317,37.85c3.35-3.34,8.76-3.34,12.11,0l24.18,24.18
		l-24.19,24.19L317,74.13c-3.33-3.33-8.73-3.33-12.07,0s-3.33,8.74,0,12.07l12.1,12.1l-36.28,36.28l-12.1-12.1
		c-3.33-3.33-8.73-3.33-12.07,0s-3.33,8.74,0,12.07l12.1,12.1l-36.28,36.28l-12.1-12.1c-3.33-3.33-8.74-3.33-12.07,0
		s-3.33,8.74,0,12.07l12.1,12.1l-30.24,30.24l-24.18-24.18c-3.34-3.35-3.34-8.76,0-12.1L317,37.85z M61.3,112.24
		c5.05-5.03,12.68-6.42,19.19-3.5c34.51,15.6,70.85,26.8,108.16,33.32l-34.81,34.81c-9.99,10.01-9.99,26.23,0,36.24l16.08,16.08
		c-6.53,1.34-12.53,4.57-17.24,9.28l-0.04,0.04L43.85,129.7L61.3,112.24z M19.6,153.94l12.17-12.17L62.01,172l-18.28,18.29
		L19.55,166.1c-1.6-1.6-2.5-3.78-2.48-6.04C17.06,157.76,17.98,155.56,19.6,153.94z"/>
	<path d="M413.38,74.42c2.5-2.47,10.81-1.4,18.2,5.99c7.38,7.38,8.48,15.71,5.99,18.2c-3.33,3.33-3.33,8.74,0,12.07
		s8.73,3.33,12.07,0c10.19-10.19,7.56-28.78-5.99-42.33c-13.55-13.55-32.14-16.17-42.33-5.99c-3.33,3.33-3.33,8.73,0,12.07
		S410.04,77.76,413.38,74.42L413.38,74.42z"/>
</g>
</svg>
